<svg xmlns="http://www.w3.org/2000/svg" viewBox="0 0 65.49 59.9"><defs><style>.cls-1{fill:#fff;}</style></defs><g id="Слой_2" data-name="Слой 2"><g id="Слой_1-2" data-name="Слой 1"><path class="cls-1" d="M0,26.29c.23-.12.16-.38.22-.56a4.6,4.6,0,0,1,7.6-2.07C10.26,26,12.6,28.42,15,30.8q8.64,8.67,17.26,17.34c.4.4.59.39,1,0Q45.24,36.05,57.28,24a4.67,4.67,0,0,1,7.09,6.09,9.74,9.74,0,0,1-.7.74Q50.15,44.39,36.64,58a7.44,7.44,0,0,1-3,1.94H31.86A4.56,4.56,0,0,1,29,58.36Q15.36,44.66,1.68,31A5.11,5.11,0,0,1,0,27.83v-.26a1.62,1.62,0,0,0,0-1Z"/><path class="cls-1" d="M0,3.91c.23-.12.16-.37.22-.56a4.6,4.6,0,0,1,7.6-2.07C10.26,3.61,12.6,6,15,8.43q8.64,8.66,17.26,17.33c.4.4.59.39,1,0q12-12.09,24.06-24.14a4.67,4.67,0,0,1,7.09,6.09,9.87,9.87,0,0,1-.7.75Q50.15,22,36.64,35.59a7.66,7.66,0,0,1-3,1.94H31.86A4.61,4.61,0,0,1,29,36Q15.36,22.28,1.68,8.58A5.08,5.08,0,0,1,0,5.45V5.2a1.65,1.65,0,0,0,0-1Z"/></g></g></svg>