<svg width="12" height="12" viewBox="0 0 12 12" fill="none" xmlns="http://www.w3.org/2000/svg">
<g clip-path="url(#clip0_263_163)">
<path d="M12.0001 1.78155V2.25044C11.3702 3.58941 10.7309 4.92388 10.1144 6.26927C9.85227 6.84119 9.44756 7.10179 8.81406 7.09441C7.20739 7.0758 5.60041 7.08767 3.99342 7.0896C3.91011 7.0896 3.79251 7.07804 3.74957 7.12522C3.44964 7.45515 3.16541 7.7992 2.83825 8.18433H10.2221C10.92 8.18433 10.9392 8.20455 10.9142 8.90965C10.9142 8.92506 10.9142 8.94175 10.9142 8.95651C10.9027 9.16159 10.7976 9.272 10.5896 9.27745C10.5575 9.27745 10.5271 9.27745 10.496 9.27745H2.91323C2.45533 9.27745 2.08907 9.10382 1.87534 8.68628C1.66161 8.26873 1.72666 7.86531 2.00095 7.4988C2.16998 7.27427 2.35097 7.05904 2.54313 6.85403C2.65464 6.73431 2.66073 6.62776 2.61459 6.47788C2.12368 4.8828 1.64078 3.28548 1.15372 1.68911C1.09508 1.49655 1.08226 1.23466 0.949922 1.13389C0.817582 1.03311 0.562194 1.10693 0.363204 1.08254C0.263548 1.07034 0.138899 1.03568 0.0789771 0.966034C-0.077716 0.786948 0.0168126 0.160471 0.204588 0H1.51517C1.76671 0.106553 1.89521 0.30682 1.95481 0.565499C1.98044 0.679112 2.03364 0.786948 2.05446 0.901204C2.08298 1.05205 2.15412 1.0912 2.30729 1.0912C5.1691 1.08574 8.03059 1.09281 10.8924 1.08221C11.4301 1.08029 11.813 1.25841 12.0001 1.78155Z" fill="white"/>
<path d="M9.85533 9.82863C10.4581 9.85142 10.9394 10.3627 10.9089 10.9471C10.8769 11.554 10.3805 12.021 9.7874 12.0014C9.19427 11.9818 8.70657 11.4622 8.73349 10.8781C8.74435 10.5903 8.86837 10.3185 9.07852 10.1219C9.28868 9.92528 9.5679 9.81987 9.85533 9.82863Z" fill="white"/>
<path d="M4.3715 10.9145C4.3715 11.1294 4.30789 11.3394 4.18872 11.518C4.06955 11.6967 3.90017 11.8359 3.70199 11.9182C3.50381 12.0004 3.28573 12.0219 3.07533 11.98C2.86493 11.9382 2.67166 11.8347 2.51996 11.6828C2.36825 11.5309 2.26492 11.3374 2.22303 11.1267C2.18114 10.9159 2.20258 10.6975 2.28462 10.499C2.36667 10.3005 2.50565 10.1308 2.68398 10.0114C2.86231 9.89196 3.07199 9.82819 3.2865 9.82812C3.57384 9.82931 3.84908 9.94413 4.05229 10.1476C4.25551 10.3511 4.37023 10.6267 4.3715 10.9145Z" fill="white"/>
</g>
<defs>
<clipPath id="clip0_263_163">
<rect width="12" height="12" fill="white"/>
</clipPath>
</defs>
</svg>
