<?xml version="1.0" encoding="UTF-8"?>
<svg id="_Слой_2" data-name="Слой 2" xmlns="http://www.w3.org/2000/svg" viewBox="0 0 278.73 232.91">
  <defs>
    <style>
      .cls-1 {
        stroke: #000;
      }

      .cls-1, .cls-2, .cls-3 {
        stroke-miterlimit: 10;
      }

      .cls-4 {
        fill: #b3b7d7;
      }

      .cls-5 {
        fill: #bcc0e6;
      }

      .cls-6 {
        fill: #472dec;
      }

      .cls-2 {
        stroke: #482cee;
      }

      .cls-2, .cls-3 {
        fill: none;
      }

      .cls-7 {
        fill: #9b9b9b;
      }

      .cls-8 {
        fill: #3e4667;
      }

      .cls-9 {
        fill: #482dec;
      }

      .cls-3 {
        stroke: #472dec;
      }
    </style>
  </defs>
  <g id="_Слой_2-2" data-name="Слой 2">
    <rect class="cls-9" x="211.15" y="73.42" width="2.48" height="37.03"/>
    <rect class="cls-9" x="122.75" y="160.95" width="2.48" height="13.47"/>
    <rect class="cls-9" x="64.15" y="84.48" width="2.48" height="45.32"/>
    <polygon class="cls-6" points="185.13 14.53 207.66 58.98 209.35 58.98 186.8 14.49 185.13 14.53"/>
    <polygon class="cls-6" points="72.41 70.45 177.38 12.79 176.89 14.6 72.41 71.83 72.41 70.45"/>
    <ellipse class="cls-2" cx="145.44" cy="29.6" rx="18.79" ry="27.21" transform="translate(4.69 76.69) rotate(-30)"/>
    <path class="cls-6" d="m164.14,104.62v24.18s.01,16.45.01,16.45l-64.61-37.63v-40.13c.73-5,4.06-6.99,7.99-7.08,1.98-.05,3.1.7,4.51,1.5l.09.05,45.43,25.7c6.25,5.24,6.73,11.46,6.58,16.96Z"/>
    <rect class="cls-1" x="177.38" y=".5" width="13.61" height="13.61"/>
    <polygon class="cls-1" points="71.91 70.95 71.92 84.11 58.87 84.11 58.87 70.95 71.91 70.95"/>
    <path class="cls-8" d="m.5,130.45l137.96,80.07,139.77-80.73c.51-.29.65-.95.32-1.43l-.23-.33c-.3-.43-.87-.56-1.33-.3l-137.99,80.28L1.51,128.7c-.46-.26-1.04-.13-1.34.32v.02c-.33.48-.18,1.13.32,1.41Z"/>
    <path class="cls-5" d="m19.38,142.28l-15.39,10.47c-.91.62-.86,1.99.09,2.54l134.18,77.42c.46.27,1.03.27,1.5,0l133.98-76.95c1-.57,1.01-2.01.01-2.59l-17.07-10.03c-.47-.27-1.04-.28-1.51,0l-115.97,66.95c-.47.27-1.04.27-1.5,0L20.98,142.22c-.5-.29-1.12-.27-1.6.06Z"/>
    <ellipse class="cls-6" cx="130.89" cy="38" rx="18.79" ry="27.21" transform="translate(-1.47 70.54) rotate(-30)"/>
    <path class="cls-3" d="m112.13,62.79v-5.84c.5-3.42,2.35-5.48,4.64-6.44"/>
    <polygon class="cls-4" points="201.86 129.32 159.99 153.74 99.47 119.03 108.49 112.88 164.08 145.25 164.08 128.8 164.07 106.48 201.86 129.32"/>
    <path class="cls-3" d="m143.02,61.84l27.13,15.28c6.25,5.24,6.73,11.45,6.58,16.95v40.63s-12.87-7.55-12.87-7.55"/>
    <polygon class="cls-6" points="164.14 113.15 164.13 113.16 143.87 133.15 143.68 133.34 136.81 140.11 130.32 146.52 118.56 146.52 72.4 84.49 70.82 84.58 117.18 148.14 131.13 148.14 138.35 140.99 145.19 134.21 145.38 134.02 164.13 115.44 164.14 115.43 169.94 109.69 206.48 73.49 205.15 72.69 168.52 108.83 164.14 113.15"/>
    <rect class="cls-1" x="117.19" y="146.94" width="13.61" height="13.61"/>
    <polygon class="cls-1" points="219.08 59.47 219.1 72.95 205.53 72.95 205.53 59.47 219.08 59.47"/>
    <g id="_ТОЧКИ" data-name="ТОЧКИ">
      <path class="cls-4" d="m226.98,121.63c-.76.08-1.1-.34-1.09-1.02.01-.7.45-1,1.15-1.01.67,0,1.04.26,1,.95-.04.65-.29,1.13-1.05,1.08Z"/>
      <path class="cls-4" d="m212.41,130.29c-.76.08-1.1-.34-1.09-1.02.01-.7.45-1,1.15-1.01.67,0,1.04.26,1,.95-.04.65-.29,1.13-1.05,1.08Z"/>
      <path class="cls-4" d="m227.27,138.85c-.76.08-1.1-.34-1.09-1.02.01-.7.45-1,1.15-1.01.67,0,1.04.26,1,.95-.04.65-.29,1.13-1.05,1.08Z"/>
      <path class="cls-4" d="m241.93,130.29c-.76.08-1.1-.34-1.09-1.02.01-.7.45-1,1.15-1.01.67,0,1.04.26,1,.95-.04.65-.29,1.13-1.05,1.08Z"/>
      <path class="cls-4" d="m197.66,138.61c-.76.08-1.1-.34-1.09-1.02.01-.7.45-1,1.15-1.01.67,0,1.04.26,1,.95-.04.65-.29,1.13-1.05,1.08Z"/>
      <path class="cls-4" d="m212.41,147.37c-.76.08-1.1-.34-1.09-1.02.01-.7.45-1,1.15-1.01.67,0,1.04.26,1,.95-.04.65-.29,1.13-1.05,1.08Z"/>
      <path class="cls-4" d="m197.66,155.95c-.76.08-1.1-.34-1.09-1.02.01-.7.45-1,1.15-1.01.67,0,1.04.26,1,.95-.04.65-.29,1.13-1.05,1.08Z"/>
      <path class="cls-4" d="m182.99,147.37c-.76.08-1.1-.34-1.09-1.02.01-.7.45-1,1.15-1.01.67,0,1.04.26,1,.95-.04.65-.29,1.13-1.05,1.08Z"/>
      <path class="cls-4" d="m168.28,155.95c-.76.08-1.1-.34-1.09-1.02.01-.7.45-1,1.15-1.01.67,0,1.04.26,1,.95-.04.65-.29,1.13-1.05,1.08Z"/>
      <path class="cls-4" d="m182.99,164.1c-.76.08-1.1-.34-1.09-1.02.01-.7.45-1,1.15-1.01.67,0,1.04.26,1,.95-.04.65-.29,1.13-1.05,1.08Z"/>
      <path class="cls-4" d="m168.28,172.8c-.76.08-1.1-.34-1.09-1.02.01-.7.45-1,1.15-1.01.67,0,1.04.26,1,.95-.04.65-.29,1.13-1.05,1.08Z"/>
      <path class="cls-4" d="m153.41,164.33c-.76.08-1.1-.34-1.09-1.02.01-.7.45-1,1.15-1.01.67,0,1.04.26,1,.95-.04.65-.29,1.13-1.05,1.08Z"/>
      <path class="cls-4" d="m153.41,181.39c-.76.08-1.1-.34-1.09-1.02.01-.7.45-1,1.15-1.01.67,0,1.04.26,1,.95-.04.65-.29,1.13-1.05,1.08Z"/>
      <path class="cls-4" d="m139.01,173.12c-.76.08-1.1-.34-1.09-1.02.01-.7.45-1,1.15-1.01.67,0,1.04.26,1,.95-.04.65-.29,1.13-1.05,1.08Z"/>
      <path class="cls-4" d="m139.01,189.97c-.76.08-1.1-.34-1.09-1.02.01-.7.45-1,1.15-1.01.67,0,1.04.26,1,.95-.04.65-.29,1.13-1.05,1.08Z"/>
      <path class="cls-4" d="m139.01,155.77c-.76.08-1.1-.34-1.09-1.02.01-.7.45-1,1.15-1.01.67,0,1.04.26,1,.95-.04.65-.29,1.13-1.05,1.08Z"/>
      <path class="cls-4" d="m109.64,172.72c-.76.08-1.1-.34-1.09-1.02.01-.7.45-1,1.15-1.01.67,0,1.04.26,1,.95-.04.65-.29,1.13-1.05,1.08Z"/>
      <path class="cls-4" d="m94.5,164.5c-.76.08-1.1-.34-1.09-1.02.01-.7.45-1,1.15-1.01.67,0,1.04.26,1,.95-.04.65-.29,1.13-1.05,1.08Z"/>
      <path class="cls-4" d="m109.3,155.89c-.76.08-1.1-.34-1.09-1.02.01-.7.45-1,1.15-1.01.67,0,1.04.26,1,.95-.04.65-.29,1.13-1.05,1.08Z"/>
      <path class="cls-4" d="m94.5,147.32c-.76.08-1.1-.34-1.09-1.02.01-.7.45-1,1.15-1.01.67,0,1.04.26,1,.95-.04.65-.29,1.13-1.05,1.08Z"/>
      <path class="cls-4" d="m79.55,155.89c-.76.08-1.1-.34-1.09-1.02.01-.7.45-1,1.15-1.01.67,0,1.04.26,1,.95-.04.65-.29,1.13-1.05,1.08Z"/>
      <path class="cls-4" d="m79.55,138.76c-.76.08-1.1-.34-1.09-1.02.01-.7.45-1,1.15-1.01.67,0,1.04.26,1,.95-.04.65-.29,1.13-1.05,1.08Z"/>
      <path class="cls-4" d="m64.93,147.32c-.76.08-1.1-.34-1.09-1.02.01-.7.45-1,1.15-1.01.67,0,1.04.26,1,.95-.04.65-.29,1.13-1.05,1.08Z"/>
      <path class="cls-4" d="m94.79,130.14c-.76.08-1.1-.34-1.09-1.02.01-.7.45-1,1.15-1.01.67,0,1.04.26,1,.95-.04.65-.29,1.13-1.05,1.08Z"/>
      <path class="cls-4" d="m79.55,121.48c-.76.08-1.1-.34-1.09-1.02.01-.7.45-1,1.15-1.01.67,0,1.04.26,1,.95-.04.65-.29,1.13-1.05,1.08Z"/>
      <path class="cls-4" d="m79.78,104.86c-.76.08-1.1-.34-1.09-1.02.01-.7.45-1,1.15-1.01.67,0,1.04.26,1,.95-.04.65-.29,1.13-1.05,1.08Z"/>
      <path class="cls-4" d="m94.79,96.01c-.76.08-1.1-.34-1.09-1.02.01-.7.45-1,1.15-1.01.67,0,1.04.26,1,.95-.04.65-.29,1.13-1.05,1.08Z"/>
      <path class="cls-4" d="m138.67,70.51c-.76.08-1.1-.34-1.09-1.02.01-.7.45-1,1.15-1.01.67,0,1.04.26,1,.95-.04.65-.29,1.13-1.05,1.08Z"/>
      <path class="cls-4" d="m153.53,79.29c-.76.08-1.1-.34-1.09-1.02.01-.7.45-1,1.15-1.01.67,0,1.04.26,1,.95-.04.65-.29,1.13-1.05,1.08Z"/>
      <path class="cls-4" d="m168.24,87.9c-.76.08-1.1-.34-1.09-1.02.01-.7.45-1,1.15-1.01.67,0,1.04.26,1,.95-.04.65-.29,1.13-1.05,1.08Z"/>
      <path class="cls-4" d="m168.24,105.07c-.76.08-1.1-.34-1.09-1.02.01-.7.45-1,1.15-1.01.67,0,1.04.26,1,.95-.04.65-.29,1.13-1.05,1.08Z"/>
      <path class="cls-4" d="m183.26,113.23c-.76.08-1.1-.34-1.09-1.02.01-.7.45-1,1.15-1.01.67,0,1.04.26,1,.95-.04.65-.29,1.13-1.05,1.08Z"/>
      <path class="cls-4" d="m197.75,105.07c-.76.08-1.1-.34-1.09-1.02.01-.7.45-1,1.15-1.01.67,0,1.04.26,1,.95-.04.65-.29,1.13-1.05,1.08Z"/>
      <path class="cls-4" d="m197.75,121.76c-.76.08-1.1-.34-1.09-1.02.01-.7.45-1,1.15-1.01.67,0,1.04.26,1,.95-.04.65-.29,1.13-1.05,1.08Z"/>
      <path class="cls-4" d="m50.21,121.48c-.76.08-1.1-.34-1.09-1.02.01-.7.45-1,1.15-1.01.67,0,1.04.26,1,.95-.04.65-.29,1.13-1.05,1.08Z"/>
      <path class="cls-4" d="m50.21,138.76c-.76.08-1.1-.34-1.09-1.02.01-.7.45-1,1.15-1.01.67,0,1.04.26,1,.95-.04.65-.29,1.13-1.05,1.08Z"/>
      <path class="cls-4" d="m35.38,130.34c-.76.08-1.1-.34-1.09-1.02.01-.7.45-1,1.15-1.01.67,0,1.04.26,1,.95-.04.65-.29,1.13-1.05,1.08Z"/>
      <path class="cls-7" d="m107.49,120.75c-.76.08-1.1-.34-1.09-1.02.01-.7.45-1,1.15-1.01.67,0,1.04.26,1,.95-.04.65-.29,1.13-1.05,1.08Z"/>
      <path class="cls-7" d="m121.7,129.16c-.76.08-1.1-.34-1.09-1.02.01-.7.45-1,1.15-1.01.67,0,1.04.26,1,.95-.04.65-.29,1.13-1.05,1.08Z"/>
      <path class="cls-7" d="m137,138.13c-.76.08-1.1-.34-1.09-1.02.01-.7.45-1,1.15-1.01.67,0,1.04.26,1,.95-.04.65-.29,1.13-1.05,1.08Z"/>
      <path class="cls-7" d="m153.22,147.32c-.76.08-1.1-.34-1.09-1.02.01-.7.45-1,1.15-1.01.67,0,1.04.26,1,.95-.04.65-.29,1.13-1.05,1.08Z"/>
      <path class="cls-7" d="m168.24,138.13c-.76.08-1.1-.34-1.09-1.02.01-.7.45-1,1.15-1.01.67,0,1.04.26,1,.95-.04.65-.29,1.13-1.05,1.08Z"/>
      <path class="cls-7" d="m181.93,127.58c-.76.08-1.1-.34-1.09-1.02.01-.7.45-1,1.15-1.01.67,0,1.04.26,1,.95-.04.65-.29,1.13-1.05,1.08Z"/>
      <path class="cls-7" d="m168.24,121.48c-.76.08-1.1-.34-1.09-1.02.01-.7.45-1,1.15-1.01.67,0,1.04.26,1,.95-.04.65-.29,1.13-1.05,1.08Z"/>
    </g>
  </g>
</svg>