<?xml version="1.0" encoding="UTF-8"?>
<svg id="_Слой_2" data-name="Слой 2" xmlns="http://www.w3.org/2000/svg" viewBox="0 0 278.73 232.91">
  <defs>
    <style>
      .cls-1 {
        fill: #5258c6;
      }

      .cls-2 {
        stroke: #000;
      }

      .cls-2, .cls-3, .cls-4 {
        stroke-miterlimit: 10;
      }

      .cls-5 {
        fill: #bcc0e6;
      }

      .cls-6 {
        fill: #7d80a1;
      }

      .cls-3 {
        stroke: #5258c6;
      }

      .cls-3, .cls-4 {
        fill: none;
      }

      .cls-4 {
        stroke: #482cee;
      }

      .cls-7 {
        fill: #482cee;
      }

      .cls-8 {
        fill: #3e4667;
      }
    </style>
  </defs>
  <g id="_Слой_2-2" data-name="Слой 2">
    <polyline class="cls-5" points="109.11 112.52 99.54 119.03 160.06 153.74 201.93 129.32 139.54 91.62"/>
    <polygon class="cls-7" points="185.13 14.53 207.66 58.98 209.87 58.98 187.21 14.48 185.13 14.53"/>
    <polygon class="cls-7" points="72.41 70.45 176.97 10.6 176.97 12.52 72.41 71.83 72.41 70.45"/>
    <ellipse class="cls-4" cx="145.44" cy="29.6" rx="18.79" ry="27.21" transform="translate(4.69 76.69) rotate(-30)"/>
    <path class="cls-3" d="m177.74,135.91l-64.61-37.62v-40.14c.74-5,4.06-6.98,7.99-7.08,1.98-.05,3.1.7,4.51,1.5l45.52,25.76c6.24,5.24,6.72,11.45,6.58,16.95v40.63Z"/>
    <path class="cls-7" d="m164.15,143.82l-64.61-37.62v-40.14c.74-5,4.06-6.98,7.99-7.08,1.98-.05,3.1.7,4.51,1.5l45.52,25.76c6.24,5.24,6.72,11.45,6.58,16.95v40.63Z"/>
    <polyline class="cls-7" points="72.41 84.48 118.57 146.51 130.33 146.51 205.15 72.68 206.48 73.48 131.14 148.14 117.19 148.14 70.82 84.58 72.41 84.48"/>
    <rect class="cls-2" x="177.38" y=".5" width="13.61" height="13.61"/>
    <polyline class="cls-1" points="63.5 84.45 63.5 129.68 65.99 129.77 65.99 83.71 63.5 83.61 63.5 84.45 63.5 129.68 65.39 129.56 65.39 83.5"/>
    <polygon class="cls-2" points="219.08 59.47 219.1 72.95 205.53 72.95 205.53 59.47 219.08 59.47"/>
    <polygon class="cls-2" points="71.91 70.95 71.92 84.11 58.87 84.11 58.87 70.95 71.91 70.95"/>
    <path class="cls-8" d="m.5,130.45l137.96,80.07,139.77-80.73c.51-.29.65-.95.32-1.43l-.23-.33c-.3-.43-.87-.56-1.33-.3l-137.99,80.28L1.51,128.7c-.46-.26-1.04-.13-1.34.32v.02c-.33.48-.18,1.13.32,1.41Z"/>
    <path class="cls-5" d="m19.38,142.28l-15.39,10.47c-.91.62-.86,1.99.09,2.54l134.18,77.42c.46.27,1.03.27,1.5,0l133.98-76.95c1-.57,1.01-2.01.01-2.59l-17.07-10.03c-.47-.27-1.04-.28-1.51,0l-115.97,66.95c-.47.27-1.04.27-1.5,0L20.98,142.22c-.5-.29-1.12-.27-1.6.06Z"/>
    <g id="_ТОЧКИ" data-name="ТОЧКИ">
      <path class="cls-6" d="m226.98,121.63c-.76.08-1.1-.34-1.09-1.02.01-.7.45-1,1.15-1.01.67,0,1.04.26,1,.95-.04.65-.29,1.13-1.05,1.08Z"/>
      <path class="cls-6" d="m212.41,130.29c-.76.08-1.1-.34-1.09-1.02.01-.7.45-1,1.15-1.01.67,0,1.04.26,1,.95-.04.65-.29,1.13-1.05,1.08Z"/>
      <path class="cls-6" d="m227.27,138.85c-.76.08-1.1-.34-1.09-1.02.01-.7.45-1,1.15-1.01.67,0,1.04.26,1,.95-.04.65-.29,1.13-1.05,1.08Z"/>
      <path class="cls-6" d="m241.93,130.29c-.76.08-1.1-.34-1.09-1.02.01-.7.45-1,1.15-1.01.67,0,1.04.26,1,.95-.04.65-.29,1.13-1.05,1.08Z"/>
      <path class="cls-6" d="m197.66,138.61c-.76.08-1.1-.34-1.09-1.02.01-.7.45-1,1.15-1.01.67,0,1.04.26,1,.95-.04.65-.29,1.13-1.05,1.08Z"/>
      <path class="cls-6" d="m212.41,147.37c-.76.08-1.1-.34-1.09-1.02.01-.7.45-1,1.15-1.01.67,0,1.04.26,1,.95-.04.65-.29,1.13-1.05,1.08Z"/>
      <path class="cls-6" d="m197.66,155.95c-.76.08-1.1-.34-1.09-1.02.01-.7.45-1,1.15-1.01.67,0,1.04.26,1,.95-.04.65-.29,1.13-1.05,1.08Z"/>
      <path class="cls-6" d="m182.99,147.37c-.76.08-1.1-.34-1.09-1.02.01-.7.45-1,1.15-1.01.67,0,1.04.26,1,.95-.04.65-.29,1.13-1.05,1.08Z"/>
      <path class="cls-6" d="m168.28,155.95c-.76.08-1.1-.34-1.09-1.02.01-.7.45-1,1.15-1.01.67,0,1.04.26,1,.95-.04.65-.29,1.13-1.05,1.08Z"/>
      <path class="cls-6" d="m182.99,164.1c-.76.08-1.1-.34-1.09-1.02.01-.7.45-1,1.15-1.01.67,0,1.04.26,1,.95-.04.65-.29,1.13-1.05,1.08Z"/>
      <path class="cls-6" d="m168.28,172.8c-.76.08-1.1-.34-1.09-1.02.01-.7.45-1,1.15-1.01.67,0,1.04.26,1,.95-.04.65-.29,1.13-1.05,1.08Z"/>
      <path class="cls-6" d="m153.41,164.33c-.76.08-1.1-.34-1.09-1.02.01-.7.45-1,1.15-1.01.67,0,1.04.26,1,.95-.04.65-.29,1.13-1.05,1.08Z"/>
      <path class="cls-6" d="m153.41,181.39c-.76.08-1.1-.34-1.09-1.02.01-.7.45-1,1.15-1.01.67,0,1.04.26,1,.95-.04.65-.29,1.13-1.05,1.08Z"/>
      <path class="cls-6" d="m139.01,173.12c-.76.08-1.1-.34-1.09-1.02.01-.7.45-1,1.15-1.01.67,0,1.04.26,1,.95-.04.65-.29,1.13-1.05,1.08Z"/>
      <path class="cls-6" d="m139.01,189.97c-.76.08-1.1-.34-1.09-1.02.01-.7.45-1,1.15-1.01.67,0,1.04.26,1,.95-.04.65-.29,1.13-1.05,1.08Z"/>
      <path class="cls-6" d="m139.01,155.77c-.76.08-1.1-.34-1.09-1.02.01-.7.45-1,1.15-1.01.67,0,1.04.26,1,.95-.04.65-.29,1.13-1.05,1.08Z"/>
      <path class="cls-6" d="m109.64,172.72c-.76.08-1.1-.34-1.09-1.02.01-.7.45-1,1.15-1.01.67,0,1.04.26,1,.95-.04.65-.29,1.13-1.05,1.08Z"/>
      <path class="cls-6" d="m94.5,164.5c-.76.08-1.1-.34-1.09-1.02.01-.7.45-1,1.15-1.01.67,0,1.04.26,1,.95-.04.65-.29,1.13-1.05,1.08Z"/>
      <path class="cls-6" d="m109.3,155.89c-.76.08-1.1-.34-1.09-1.02.01-.7.45-1,1.15-1.01.67,0,1.04.26,1,.95-.04.65-.29,1.13-1.05,1.08Z"/>
      <path class="cls-6" d="m94.5,147.32c-.76.08-1.1-.34-1.09-1.02.01-.7.45-1,1.15-1.01.67,0,1.04.26,1,.95-.04.65-.29,1.13-1.05,1.08Z"/>
      <path class="cls-6" d="m79.55,155.89c-.76.08-1.1-.34-1.09-1.02.01-.7.45-1,1.15-1.01.67,0,1.04.26,1,.95-.04.65-.29,1.13-1.05,1.08Z"/>
      <path class="cls-6" d="m79.55,138.76c-.76.08-1.1-.34-1.09-1.02.01-.7.45-1,1.15-1.01.67,0,1.04.26,1,.95-.04.65-.29,1.13-1.05,1.08Z"/>
      <path class="cls-6" d="m64.93,147.32c-.76.08-1.1-.34-1.09-1.02.01-.7.45-1,1.15-1.01.67,0,1.04.26,1,.95-.04.65-.29,1.13-1.05,1.08Z"/>
      <path class="cls-6" d="m94.79,130.14c-.76.08-1.1-.34-1.09-1.02.01-.7.45-1,1.15-1.01.67,0,1.04.26,1,.95-.04.65-.29,1.13-1.05,1.08Z"/>
      <path class="cls-6" d="m79.55,121.48c-.76.08-1.1-.34-1.09-1.02.01-.7.45-1,1.15-1.01.67,0,1.04.26,1,.95-.04.65-.29,1.13-1.05,1.08Z"/>
      <path class="cls-6" d="m79.78,104.86c-.76.08-1.1-.34-1.09-1.02.01-.7.45-1,1.15-1.01.67,0,1.04.26,1,.95-.04.65-.29,1.13-1.05,1.08Z"/>
      <path class="cls-6" d="m94.79,96.01c-.76.08-1.1-.34-1.09-1.02.01-.7.45-1,1.15-1.01.67,0,1.04.26,1,.95-.04.65-.29,1.13-1.05,1.08Z"/>
      <path class="cls-6" d="m138.67,70.51c-.76.08-1.1-.34-1.09-1.02.01-.7.45-1,1.15-1.01.67,0,1.04.26,1,.95-.04.65-.29,1.13-1.05,1.08Z"/>
      <path class="cls-6" d="m153.53,79.29c-.76.08-1.1-.34-1.09-1.02.01-.7.45-1,1.15-1.01.67,0,1.04.26,1,.95-.04.65-.29,1.13-1.05,1.08Z"/>
      <path class="cls-6" d="m168.24,87.9c-.76.08-1.1-.34-1.09-1.02.01-.7.45-1,1.15-1.01.67,0,1.04.26,1,.95-.04.65-.29,1.13-1.05,1.08Z"/>
      <path class="cls-6" d="m168.24,105.07c-.76.08-1.1-.34-1.09-1.02.01-.7.45-1,1.15-1.01.67,0,1.04.26,1,.95-.04.65-.29,1.13-1.05,1.08Z"/>
      <path class="cls-6" d="m183.26,113.23c-.76.08-1.1-.34-1.09-1.02.01-.7.45-1,1.15-1.01.67,0,1.04.26,1,.95-.04.65-.29,1.13-1.05,1.08Z"/>
      <path class="cls-6" d="m197.75,105.07c-.76.08-1.1-.34-1.09-1.02.01-.7.45-1,1.15-1.01.67,0,1.04.26,1,.95-.04.65-.29,1.13-1.05,1.08Z"/>
      <path class="cls-6" d="m197.75,121.76c-.76.08-1.1-.34-1.09-1.02.01-.7.45-1,1.15-1.01.67,0,1.04.26,1,.95-.04.65-.29,1.13-1.05,1.08Z"/>
      <path class="cls-6" d="m50.21,121.48c-.76.08-1.1-.34-1.09-1.02.01-.7.45-1,1.15-1.01.67,0,1.04.26,1,.95-.04.65-.29,1.13-1.05,1.08Z"/>
      <path class="cls-6" d="m35.38,130.34c-.76.08-1.1-.34-1.09-1.02.01-.7.45-1,1.15-1.01.67,0,1.04.26,1,.95-.04.65-.29,1.13-1.05,1.08Z"/>
      <path class="cls-6" d="m50.21,138.76c-.76.08-1.1-.34-1.09-1.02.01-.7.45-1,1.15-1.01.67,0,1.04.26,1,.95-.04.65-.29,1.13-1.05,1.08Z"/>
      <ellipse class="cls-7" cx="130.89" cy="38" rx="18.79" ry="27.21" transform="translate(-1.47 70.54) rotate(-30)"/>
    </g>
    <polyline class="cls-1" points="211.15 74.19 211.15 109.76 213.64 109.84 213.64 73.61 211.15 73.53 211.15 74.19 211.15 109.76 213.04 109.67 213.04 73.44"/>
    <polyline class="cls-1" points="122.46 162.57 122.46 181.32 124.95 181.36 124.95 162.26 122.46 162.22 122.46 162.57 122.46 181.32 124.35 181.27 124.35 162.29"/>
    <rect class="cls-2" x="117.1" y="148.61" width="13.61" height="13.61"/>
  </g>
</svg>