<svg width="36" height="36" viewBox="0 0 36 36" fill="none" xmlns="http://www.w3.org/2000/svg">
<path d="M31.8582 8.84085C32.1408 9.11992 32.2996 9.49843 32.2996 9.89309C32.2996 10.2878 32.1408 10.6663 31.8582 10.9453L25.037 17.6797L31.8582 24.414C32.1408 24.6931 32.2996 25.0716 32.2996 25.4663C32.2996 25.8609 32.1408 26.2395 31.8582 26.5185C31.5755 26.7976 31.1921 26.9544 30.7924 26.9544C30.3926 26.9544 30.0092 26.7976 29.7266 26.5185L22.9054 19.7842L16.0843 26.5185C15.8017 26.7976 15.4183 26.9544 15.0185 26.9544C14.6188 26.9544 14.2354 26.7976 13.9527 26.5185C13.6701 26.2395 13.5113 25.8609 13.5113 25.4663C13.5113 25.0716 13.6701 24.6931 13.9527 24.414L20.7738 17.6797L13.9527 10.9453C13.6701 10.6663 13.5113 10.2878 13.5113 9.89309C13.5113 9.49843 13.6701 9.11992 13.9527 8.84085C14.2354 8.56178 14.6188 8.405 15.0185 8.405C15.4183 8.405 15.8017 8.56178 16.0843 8.84085L22.9054 15.5752L29.7266 8.84085C30.0092 8.56178 30.3926 8.405 30.7924 8.405C31.1921 8.405 31.5755 8.56178 31.8582 8.84085Z" fill="#2B2B2B"/>
</svg>
