<svg xmlns="http://www.w3.org/2000/svg" viewBox="0 0 31.16 31.16"><defs><style>.cls-1{fill:#fff;}</style></defs><g id="Слой_2" data-name="Слой 2"><g id="Слой_1-2" data-name="Слой 1"><g id="Слой_2-2" data-name="Слой 2"><g id="Слой_2-2-2" data-name="Слой 2-2"><path class="cls-1" d="M30.43.73h0a2.5,2.5,0,0,1,0,3.54L19.12,15.58,30.43,26.9a2.49,2.49,0,0,1,0,3.53h0a2.49,2.49,0,0,1-3.53,0L15.58,19.12,4.27,30.43a2.5,2.5,0,0,1-3.54,0h0a2.5,2.5,0,0,1,0-3.53L12.05,15.58.73,4.27A2.52,2.52,0,0,1,.73.73h0a2.52,2.52,0,0,1,3.54,0L15.58,12.05,26.9.73A2.5,2.5,0,0,1,30.43.73Z"/></g></g></g></g></svg>