<svg width="37" height="36" viewBox="0 0 37 36" fill="none" xmlns="http://www.w3.org/2000/svg">
<g clip-path="url(#clip0_523_7)">
<path d="M27.1238 8.84085C27.4065 9.11992 27.5653 9.49843 27.5653 9.89309C27.5653 10.2878 27.4065 10.6663 27.1238 10.9453L20.3027 17.6797L27.1238 24.414C27.4065 24.6931 27.5653 25.0716 27.5653 25.4663C27.5653 25.8609 27.4065 26.2395 27.1238 26.5185C26.8411 26.7976 26.4577 26.9544 26.058 26.9544C25.6582 26.9544 25.2749 26.7976 24.9922 26.5185L18.1711 19.7842L11.3499 26.5185C11.0673 26.7976 10.6839 26.9544 10.2841 26.9544C9.8844 26.9544 9.50102 26.7976 9.21835 26.5185C8.93568 26.2395 8.77688 25.8609 8.77688 25.4663C8.77688 25.0716 8.93568 24.6931 9.21835 24.414L16.0395 17.6797L9.21835 10.9453C8.93568 10.6663 8.77688 10.2878 8.77688 9.89309C8.77688 9.49843 8.93568 9.11992 9.21835 8.84085C9.50102 8.56178 9.8844 8.405 10.2841 8.405C10.6839 8.405 11.0673 8.56178 11.3499 8.84085L18.1711 15.5752L24.9922 8.84085C25.2749 8.56178 25.6582 8.405 26.058 8.405C26.4577 8.405 26.8411 8.56178 27.1238 8.84085Z" fill="#2B2B2B"/>
</g>
<defs>
<clipPath id="clip0_523_7">
<rect width="25.1616" height="25.1616" fill="white" transform="matrix(0.711619 -0.702566 0.711619 0.702566 0.265625 17.6797)"/>
</clipPath>
</defs>
</svg>
