<svg width="24" height="24" viewBox="0 0 24 24" fill="none" xmlns="http://www.w3.org/2000/svg">
<g clip-path="url(#clip0_889_2)">
<path d="M16.9688 0H7.03125C3.148 0 0 3.148 0 7.03125V16.9688C0 20.852 3.148 24 7.03125 24H16.9688C20.852 24 24 20.852 24 16.9688V7.03125C24 3.148 20.852 0 16.9688 0Z" fill="#BB71F1"/>
<path d="M15.5485 6.25781H8.91945L7.2793 18.6206L12.662 24.0033H16.9693C20.8524 24.0033 24.0005 20.8552 24.0005 16.972V14.7094L15.549 6.25781H15.5485Z" fill="url(#paint0_linear_889_2)"/>
<path d="M16.4479 8.69484C16.4479 10.0505 15.8615 11.0798 14.6887 11.7834C15.3271 12.0183 15.8615 12.4223 16.2918 12.9956C16.7216 13.5694 16.9368 14.3803 16.9368 15.4294C16.9368 16.4784 16.5487 17.3095 15.7738 17.9222C14.998 18.5348 13.8871 18.8409 12.4405 18.8409H7.82711C7.60539 18.8409 7.42305 18.7659 7.27961 18.6159C7.13617 18.4664 7.06445 18.2677 7.06445 18.0197V5.50828C7.06445 5.36484 7.08695 5.27062 7.13289 5.22469C7.17836 5.17922 7.27258 5.15625 7.41648 5.15625H11.8738C14.9235 5.15625 16.4484 6.33609 16.4484 8.69484H16.4479ZM10.8177 8.32359V10.8848H10.9157C12.1668 10.8848 12.7921 10.4677 12.7921 9.63375C12.7921 9.17766 12.6716 8.84531 12.4302 8.63672C12.1888 8.42812 11.7885 8.32406 11.2279 8.32406H10.8173L10.8177 8.32359ZM10.8177 13.1916V15.7327H11.1698C11.7299 15.7327 12.1405 15.6286 12.4012 15.42C12.6618 15.2114 12.7921 14.8795 12.7921 14.423C12.7921 13.9664 12.6716 13.6481 12.4302 13.4653C12.1888 13.283 11.7885 13.1916 11.2279 13.1916H10.8173H10.8177Z" fill="white"/>
</g>
<defs>
<linearGradient id="paint0_linear_889_2" x1="7.07586" y1="8.10141" x2="21.4295" y2="22.455" gradientUnits="userSpaceOnUse">
<stop stop-opacity="0.5"/>
<stop offset="1" stop-opacity="0"/>
</linearGradient>
<clipPath id="clip0_889_2">
<rect width="24" height="24" fill="white"/>
</clipPath>
</defs>
</svg>
