<svg width="127" height="174" viewBox="0 0 127 174" fill="none" xmlns="http://www.w3.org/2000/svg">
<path d="M63.4004 0V36.0663C79.3004 36.0663 92.1003 48.9542 92.1003 64.7395C92.1003 80.6246 79.2004 93.4127 63.4004 93.4127V173.338C63.4004 173.338 74.2004 150.859 83.9004 122.785C108.7 114.193 126.5 90.8151 126.5 63.141C126.4 28.2736 98.2004 0.0999066 63.4004 0Z" fill="url(#paint0_linear_270_252)"/>
<path d="M63.4 93.4127C47.5 93.4127 34.7 80.5247 34.7 64.7395C34.7 48.8543 47.6 36.0663 63.4 36.0663V0C63.3 0 63.2999 0 63.2 0C28.2999 0 0 28.2736 0 63.141C0 90.7152 17.7 114.093 42.4 122.685C52.2 150.859 63.4 173.338 63.4 173.338V93.4127Z" fill="white"/>
<defs>
<linearGradient id="paint0_linear_270_252" x1="63.3685" y1="86.6731" x2="126.379" y2="86.6731" gradientUnits="userSpaceOnUse">
<stop stop-color="#262626"/>
<stop offset="1" stop-color="#2B2B2B"/>
</linearGradient>
</defs>
</svg>
