<?xml version="1.0" encoding="UTF-8"?>
<svg id="_Слой_2" data-name="Слой 2" xmlns="http://www.w3.org/2000/svg" viewBox="0 0 267.77 236.72">
  <defs>
    <style>
      .cls-1 {
        fill: #7c81a5;
      }

      .cls-2 {
        fill: #646afe;
      }

      .cls-3 {
        fill: #482cee;
      }

      .cls-4 {
        fill: #3c496e;
      }

      .cls-5 {
        fill: #bac1e7;
      }
    </style>
  </defs>
  <g id="_Слой_2-2" data-name="Слой 2">
    <circle class="cls-3" cx="130.31" cy="76.68" r="73.1"/>
    <path class="cls-5" d="m20,148.82l-18.96,11.08c-.44.26-.44.68,0,.94l131.22,75.59c.68.39,1.78.39,2.45,0l130.44-75.41c.47-.27.47-.95,0-1.22l-17.99-10.85-113.88,65.32L20,148.82Z"/>
    <path class="cls-4" d="m132.7,214.11L.58,137.68c-.66-.38-.78-1.28-.24-1.82l.1-.1c.37-.37.95-.45,1.4-.18l130.85,76.13c.36.21.8.21,1.16,0l132.18-76.27c.4-.23.89-.2,1.26.07h0c.67.5.61,1.52-.11,1.93l-133.34,76.67c-.18.11-.39.16-.59.15s-.39-.05-.56-.16Z"/>
    <rect x="35.38" y="49.97" width="15.02" height="15.02"/>
    <polygon points="200.38 15.02 215.4 15.02 215.4 0 200.38 0 200.38 12.78 200.38 15.02"/>
    <path class="cls-2" d="m194.02,76.79c.06.17-.06.34-.02.36.03.01.07.02.1.05.16.05.28.15.38.27.61.7.47,2.2,1.11,2.74.34.3.91.32,1.95-.22.39-.23.64-.13.81.09.22.27.29.74.36.98,1.51,5.54-1.39,10.32-2.66,15.38-.28,1.11-1.2,1.62-2.21,1.7-.25.02-.43-.05-.57-.16h-.01c-.38-.34-.42-1.04-.72-1.45-2.1-2.82-2.19-6.96-4.5-9.65-.17-.19-.34-.38-.53-.54-.69-.65-1.55-1.18-2.65-1.55-.01-.01-.03-.02-.04-.02-.16-.05-.19-1.11.02-1.56,1.09-2.33.37-4.59-.01-6.92-.11-.66-.25-1.08-.43-1.3-.01-.02-.03-.04-.04-.04-.43-.48-1.03.09-1.75.82-1.27,1.28-2.45,2.18-3.36,1.37-.02-.01-.03-.02-.04-.04-.38-.36-.71-1.03-.98-2.11-.06-.23-.14-.39-.24-.52t-.01-.01c-.4-.46-1.09-.26-1.68.04-.93.48-.25.95.02,1.49.51,1.02,1.67,2.31.45,3.19-.61.44-1.12.26-1.54-.12-.06-.05-.11-.1-.15-.15-.35-.38-.64-.86-.88-1.21-.43-.63-.89-1.21-1.39-1.75-.21-.23-.44-.46-.67-.68-1.34-1.29-2.88-2.33-4.55-3.25-.96-.53-1.44-.52-1.29.73v.02c-1.05.09-1.56.81-1.96,1.66,0,0-.01,0-.01.02-2.34.43-3.11,2.44-4.24,4.13-1.55,2.31-1.04,5.12-1.88,7.47-.53,1.49-3.14,2.52-5,1.71-.46-.2-.82-.44-1.11-.71-1.66-1.6-.82-4.34-1.39-6.42-.35-1.3.61-2.45,2.06-2.99,1.03-.38,2.94-.16,2.91-1.27-.03-1.23-.32-2.57-1.19-3.53-.05-.06-.11-.12-.17-.18-.37-.36-.83-.66-1.4-.87-.23-.08-.41-.18-.54-.29-.34-.29-.35-.69-.01-1.22.67-.57,1.3-1.16,1.86-1.77,2.7-2.9,4.12-6.31,3.13-10.68.16-.03.32-.05.49-.08.03.03.07.07.1.1.35.35.69.73,1.06,1.07.14.12.27.24.42.35,1.15.88,5.26-1.25,5.13-2.69-.25-2.68-1.88-5.38.21-8,.03-.04-.03-.19-.08-.29-.03-.06-.06-.11-.07-.11-.26.07-.6.1-.75.28-.82.91-1.44,1.03-1.98.53-.23-.22-.46-.56-.67-1.02-.56-1.19-1.27-2.31-1.98-3.43-.04-.06-.08-.12-.15-.17-.22-.25-.56-.43-.84-.65-.09.4-.24.8-.26,1.2-.15,3.58,1.56,6.62,2.9,9.76.38.87.32,1.67-.5,2.19-.35.23-.58.18-.76.04l-.03-.03c-.17-.15-.29-.39-.44-.57-.01-.01-.02-.02-.03-.03-.07-.08-.15-.15-.24-.19-.09-.04-.16-.09-.23-.16t-.01-.01c-.32-.3-.52-.83-.81-1.17-.01-.02-.02-.03-.04-.04-.31-.34-.72-.46-1.47.11-1.33.19-2.27-.14-2.89-.72-.9-.85-1.13-2.23-.9-3.39.7-3.57.09-6.82-.52-10.23-.26-1.5.41-4.09,1.97-3.87,2.3.31,4.41-.6,6.6-.21.03.03.06.07.09.1.01,0,.02,0,.02,0,.33.28.95.41,1.2.73h.01c.18.24.16.57-.3,1.12-.4.47-1.73.71-1.06,1.39.02.02.05.05.07.06.69.66,1.96,1.01,2.93.94.96-.07.24-1.14.32-1.76.21-1.5-1.17-2.17-1.59-3.33,2.25-1.23.89-3.05.77-4.67,0-.5.01-.99.01-1.49v-.36c.23-.29,1.03-.7.6-.95l-.18-.07c-.53-.16-1-.37-1.42-.64h-.02c-.37-.24-.71-.51-1.02-.8-.12-.12-.24-.24-.36-.36-1.22-1.28-2.11-2.93-3.31-4.24-.12-.14-.24-.27-.37-.39-.65-.63-1.39-1.16-2.31-1.49-.4-.14-1.02-.56-1.54-1.05-.03-.03-.06-.06-.09-.09-.75-.74-1.24-1.62-.45-2.02,2.78-1.41,2.58-2.38,1.26-3.88-.17-.18-.35-.37-.54-.58-.03-.03-.07-.07-.1-.1-.42-.44-.07-1.61-.07-2.45.22-.11.45-.22.67-.34,3.96-.4,18.73,9.25,27.77,17.45.56.49,1.09.99,1.6,1.48.16.16.32.33.48.49.46.51.9,1.05,1.36,1.57,2.51,3.72,5.04,7.44,7.52,11.18.64.95,1.12,2,1.67,3.01.16.25.33.5.49.75.17.49.35.99.52,1.48.03.03.06.07.1.1.12.14.25.27.38.41,1.38,4.46,3.03,8.86,4.07,13.39.9,3.95,1.1,8.05,1.64,12.07.09.67.33,1.32.51,1.99-.33-.19-.66-.39-.99-.58-2.11,1.36-4.3,2.47-6.91,2.31Z"/>
    <path class="cls-2" d="m164.79,28.7c-.59.27-1.17.5-1.73.67-3.14,1.01-5.84.62-7.51-1-1.08-1.03-1.73-2.59-1.79-4.61l8.16,3.66.12.05h.02s1.42.65,1.42.65l.18.07,1.13.51Z"/>
    <path class="cls-2" d="m172,79.18c-1.35,0-2.28-.63-3.14-1.4-.49-.45-.95-.95-1.46-1.38-.35-.32-.72-.61-1.13-.83-.66-.36-1.29-.75-1.93-1.14-.01,0-.03-.01-.04-.02.4-.86.91-1.59,1.97-1.68.01.01.02.02.03.02.03.03.07.05.1.08,1.02.81,1.94,1.85,3.09,2.29.72.27,1.28.6,1.69,1.01.04.03.08.07.11.11.67.73.88,1.69.71,2.94Z"/>
    <path class="cls-2" d="m195.58,104.37l-5.53,10.95c-.31.44-.6.89-.9,1.34-.15.23-.29.46-.44.69-1.23,1.95-2.43,3.97-3.98,5.62l-10.87,9.2c-1.07.9-2.51,1.23-3.86.89-.47-.04-1.03-.59-1.22-.63v-.05l.3-3.08-.35-2.21s-.07-.06-.1-.08c-1.59-1.32-5.49-1.98-6.54-.27-2.06,1.32-4.64,2.05-7.04,2.05-1.76,0-3.42-.39-4.7-1.24l-2.26-1.07c-.13-.01-.24-.08-.34-.19-.04-.03-.07-.07-.1-.11-.41-.61-.49-1.96-.45-2.57l.36-6.26.16-2.88c.11-2.03.86-3.97,2.13-5.55l5.51-6.82,2.01-2.49c.61-.75,1.81-1.74,2.67-2.19l9.77-5.08c.35-.18.64-.46.84-.81l4.57-7.94c.31-.54,1.53-.67,2.02-.25t.01.01c.07.05.12.12.15.2l2.36,7.27c.04.11.1.23.19.33.01.02.03.03.04.04.92,1.02,4.09,1.76,5.03,2.4l4.26,3.58s.1.07.14.11c.03.03.06.06.08.09.78.8,1.32,2.72,1.76,3.6l.54.82c.14.28.29.5.45.67,0,.02.03.04.05.05.49.5,1.09.48,1.96.01l1.44-.78c.17-.07.31-.1.41-.1.08,0,.15.02.2.06.52.3-.29,2.04-.73,2.67Z"/>
    <path class="cls-2" d="m109.63,66.88c-.34-.15-1.34-3.95-1.78-4.62-.03-.06-.06-.09-.09-.1-.14.03-.28.33-.42.77-.03.1-.07.22-.1.34-.37,1.4-.72,3.63-1.16,3.73-.06.03-.12.05-.19.06h-.99c-2.16.03-4.31.05-6.47.08-.05.12-.09.33-.13.33-2.3.1-3.84.11-4.87.27-.12.02-.23.04-.33.06-1.49.31-1.69,1.06-1.64,3.19.12,4.24,3.61,11.34-2.17,10.41-2.57-.42-4.58.35-7.21.26-.38-.01-1.62.24-2.58.24-.5,0-.92-.07-1.1-.28-.11-.14-.13-.33,0-.61-.04-4.46-.08-8.92-.11-13.38,0-.23.04-.39.11-.5.22-.35.75-.21,1.14-.22,3.9-.01,8.68.43,12.68.47.24.01.48.01.72.01.02-.15,0-.32-.03-.51-.17-.79-.74-1.78-.66-2.46,0-.25,0-.5-.01-.75v-5.71c-.01-.09-.02-.18-.02-.26-.07-.79.02-1.44-.08-2.26,0-.04.03-.25.08-.53.06-.41.14-.96.1-1.27.1-.29.17-.6.31-.87,0-.02.02-.03.03-.05l.8-.78c.7-.4,1.38-.79,2.08-1.19,1.52-.45,3.05-.88,4.58-1.31.59-.24,2.05-.51,2.65-.75.36-.42,1.25-1.53.69-2.32-.64-.93-.9-2.38-1.58-3.1-.31-.33-.71-.5-1.27-.41-3.24.53-5.33-.1-6.77-1.47-.14-.12-.27-.25-.38-.39-1.21-1.35-1.92-3.26-2.52-5.43-1.03-3.7-1.58-7.31-.6-11.07.04-.18-.09-.52-.2-.69-.04-.06-.08-.1-.1-.1-.98.06-1.89-1.14-2.91-.19-3.52,3.28-7.03,6.56-10.55,9.83-.5.46-.76,1.03-.33,1.37,0,0,0,.01.02.02.09.06.2.11.34.15.95.28,1.6.64,2.02,1.07.02.02.05.04.07.07,1.09,1.2.44,2.89-.3,4.68-2.84,6.91-5.61,13.86-8.44,20.78-.15.37-.61.62-.92.92-.17.44-.25.9-.43,1.34.08.39.07.76.15,1.15-1.42,2.9-1.62,5.63-1.9,8.76-.46,4.98.3,10.15,2.28,14.8.02.05.04.09.06.14.13.3.27.61.41.9.56,1.16.76,2.5,1.3,3.67.51,1.1,1.29.58,1.69-.1.8-1.38,2.07-1.62,3.46-1.74.88-1.19,1.63-1.46,2.44-.95.2.12.41.3.63.52.07.07.14.14.21.22.1.11.2.23.3.36.76.96,1.57,1.89,2.41,2.79,1.29,1.43,2.64,2.81,3.95,4.23,1.87-.99,1.2-3.11,2.01-4.58.54-.96.81-2.06,1.2-3.1,3.53-3.6,5.95-8.31,10.71-10.68.57-.07,2.77.5,3.33.56,4.9.5,3.43-1.3,1.78-3.12-.05-.05-.1-.11-.14-.16-.12-.12-.23-.24-.34-.37-.13-.13-.26-.27-.37-.41-.19-.2-.35-.4-.5-.59-1.04-1.35-2.05-2.58.29-2.59.86-.01,3.61-.13,4.47-.21,3.03.29,3.21-2.87,1.19-6.37Zm-17.75-12.62c-.02.07-.03.1-.03.06,0-.02.01-.04.03-.06Z"/>
    <rect x="78.4" y="66.88" width="15.02" height="15.02"/>
    <rect x="92.22" y="52.77" width="15.02" height="15.03"/>
    <path class="cls-2" d="m125.89,143.48l-3.56,1.37c-.23.17-1.59.35-1.86.4l-2.27-.36c-.22.05-.46.06-.69.02l-4.39-.77h-.01c-2.17-.23-5.25-.14-7.09-1.31l-6.11-4.21c-.54-.34-1.07-.69-1.56-1.14-.07-.06-.14-.13-.21-.21-.21-.2-.41-.44-.59-.7-.02,0-.02-.02-.03-.03-.02-.02-.05-.05-.1-.09-.57-.52-3.27-2.41-3.29-2.42l-2.06-1.7s-.08-.05-.11-.08h-.01c-.24-.22-.26-.46-.38-.81l-1.36-4.03c-.02-.06-.04-.12-.07-.18l-1.8-3.98c-.03-.06-.07-.13-.1-.19l-3.5-5.81-.97-1.61c-.4-.67-.85-1.31-1.33-1.92l-2.09-2.63-8.58-10.79c-.14-.18-.25-.39-.32-.61l-2.84-9.31c-.04-.12-.06-.24-.08-.36-.06-.65.2-1.2.61-1.56.02-.01.03-.03.05-.04.63-.54,1.6-.64,2.36-.04l7.37,1.29c.21.17.01.42-.42.71-1.11.79-3.71,1.87-4.11,2.46l-.28.4c-.28.42-.39.94-.29,1.43l1.22,5.95c.08.37.26.69.51.93.04.05.08.09.13.13.32.27.72.42,1.16.43l2.05.03c.55.01,1.05.22,1.41.58.07.05.13.11.19.19.3.35.48.8.5,1.3l.14,4.11c0,.36.13.7.33.99l.6.87,4.84,7.07,1.85,2.7h.03c1.51,0,7.63-.04,9.86.53.33.08.63.26.88.51l1.71,1.26.09.09s.01,0,.01.01c.53.45,1.83,1.2,2.29,1.55l10.24,7.61c1.17.6,2.83,1.93,4,2.52l1.27.49c2.52.74,3.91,1.02,5.99,2.64l1,.25c.63.05,1.17.32,1.5.64.04.02.07.06.09.09.1.11.17.23.21.34l.28,1.39c.26.76-1.66,3.12-2.31,3.61Z"/>
    <path class="cls-2" d="m134.99,46.06c-.01.13-1.11,1.72-1.2,1.81-3.33,3.18-7.78,5.26-9.51,10.02-.65,1.39-1.31,2.79-1.96,4.19-.04.09-.12.18-.21.23-.81.44-1.51-.17-2.25-.34-.05-.01-.1-.03-.14-.05-.01-.01-.02-.02-.03-.02-.11-.08-.18-.2-.2-.34-.59-4.54-1.58-8.91-.42-13.72.87-3.6,2.01-8-1.17-11.57-.41-.46-.4-1.32-.54-2.04-.02-.11-.01-.24.05-.34,1.6-3.07,5.25-2.91,7.56-4.86.04-.03.08-.06.12-.07,2.79-1.16,5.39-1.48,7.5.49.16.13.32.29.47.46.28.32.54.67.8,1.08,1.33,2.1,1.02,4.57,1.12,6.75.14,3.3.23,5.01.01,8.32Z"/>
    <path class="cls-2" d="m123.09,28.86c-3.6,2.38-8.02,3.5-10.84,7.06-.4.08-.67.13-1.07.21-.73-.43-1.53-.84-2.28-1.26-.02-.01-.04-.02-.05-.04-.19-.14-.25-.41-.11-.6.72-1.06,1.68-1.94,2.98-2.26,1.01-.24,1.56-.67,1.22-1.83-.1-.3.02-.76.2-1.05,1.18-1.94,7.98-2.95,9.4-1.39.01.01.02.02.03.04.26.3.35.75.52,1.12Z"/>
    <path class="cls-2" d="m99.49,38.22c-1.16,1.34-2.37-.08-3.48-.42-.15-.04-.27-.1-.35-.17-.47-.38.04-1.07.21-1.6.9-2.87,1.37-6.02,4.79-7.22.33.24.66.48.99.72.02.02.03.04.04.06,2.94,3.78-.05,6.15-2.2,8.63Z"/>
    <path class="cls-2" d="m139.43,56.11c-.66,1.69-1.48,3.33-3.68,2.69-.48-.13-.96-.37-1.34-.71-.42-.41-.7-.95-.68-1.68.01-.26.35-.74.4-.74,1.68.62,2.96-2.61,4.74-.83.02.02.05.05.08.08.06.06.12.13.18.21.1.33.2.66.3.98Z"/>
    <path class="cls-2" d="m151.9,68.04c-.32-.05-.55-.15-.71-.29-.02-.01-.05-.03-.06-.06-.69-.67.14-2.02-.47-2.72,0-.01-.01-.01-.01-.01-.05-.06-.12-.12-.2-.17,0-.01-.02-.01-.03-.02-.83-.92-1.65-1.85-2.48-2.77-.01-1.46-.36-3.02.06-4.34.56-1.76,1.41.04,2.15.18.01.03.02.05.03.08.36,1.22,1.02,2.25,1.85,3.15.27.32.58.63.91.93.18.16.36.32.54.48.03.03.07.06.1.1.28.23.51.45.71.67,2.33,2.52-.2,3.6-2.39,4.79Z"/>
    <path class="cls-2" d="m149.13,65.39c-.66.63-1.31,1.27-1.97,1.9-.12-.14-.3-.3-.44-.44-.16-.15-.28-.29-.26-.42.15-1.3-.41-2.84,1.11-3.73.02.04.05.08.07.12.5.85.99,1.71,1.49,2.57Z"/>
    <path class="cls-2" d="m107.84,35.41v.08c-.01.57-.01,1.16-.01,1.74-.73.03-1.46.06-2.19.09-.59.09-1.18.18-1.78.27-.03.01-.07.01-.1.02-.2-4.74,2.35-2.41,4.08-2.2Z"/>
    <path id="_ПОД_ГЛОБУСОМ" data-name="ПОД ГЛОБУСОМ" class="cls-5" d="m202.71,141.84c0,22.92-32.51,41.51-72.6,41.51s-72.6-18.59-72.6-41.51c0-8.75,4.59-16.88,12.68-23.56,13.09,18.96,35.13,31.39,59.92,31.39s47.24-12.43,60.34-31.39c8.09,6.68,12.26,14.81,12.26,23.56Z"/>
    <polygon class="cls-3" points="50.4 57.93 59.79 59.65 59.27 62.12 50.4 60.67 50.4 57.93"/>
    <path class="cls-2" d="m59.71,60.03c.04-.21.43-.51.63-.45l2.01.63,5.13,1.43,1.23.68c.18.05.29.24.25.43l-.18.77c-.04.19-.23.31-.42.27l-1.64-.3-5.24-1.23-1.69-.29c-.2-.04-.49-.02-.45-.22l.37-1.72Z"/>
    <polygon class="cls-3" points="200.38 15.02 184.98 28.37 183.87 27.14 200.38 12.78 200.38 15.02"/>
    <rect x="84.27" y="144.97" width="15.02" height="15.02"/>
    <g id="_Точки" data-name="Точки">
      <path class="cls-1" d="m62.86,121.32c-.76.08-1.1-.34-1.09-1.02.01-.7.45-1,1.15-1.01.67,0,1.04.26,1,.95-.04.65-.29,1.13-1.05,1.08Z"/>
      <path class="cls-1" d="m48.75,129.48c-.76.08-1.1-.34-1.09-1.02.01-.7.45-1,1.15-1.01.67,0,1.04.26,1,.95-.04.65-.29,1.13-1.05,1.08Z"/>
      <path class="cls-1" d="m34.47,137.31c-.76.08-1.1-.34-1.09-1.02.01-.7.45-1,1.15-1.01.67,0,1.04.26,1,.95-.04.65-.29,1.13-1.05,1.08Z"/>
      <path class="cls-1" d="m48.82,145.57c-.76.08-1.1-.34-1.09-1.02.01-.7.45-1,1.15-1.01.67,0,1.04.26,1,.95-.04.65-.29,1.13-1.05,1.08Z"/>
      <path class="cls-1" d="m133.74,194.8c-.76.08-1.1-.34-1.09-1.02.01-.7.45-1,1.15-1.01.67,0,1.04.26,1,.95-.04.65-.29,1.13-1.05,1.08Z"/>
      <path class="cls-1" d="m119.5,186.71c-.76.08-1.1-.34-1.09-1.02.01-.7.45-1,1.15-1.01.67,0,1.04.26,1,.95-.04.65-.29,1.13-1.05,1.08Z"/>
      <path class="cls-1" d="m147.89,186.71c-.76.08-1.1-.34-1.09-1.02.01-.7.45-1,1.15-1.01.67,0,1.04.26,1,.95-.04.65-.29,1.13-1.05,1.08Z"/>
      <path class="cls-1" d="m62.86,137.53c-.76.08-1.1-.34-1.09-1.02.01-.7.45-1,1.15-1.01.67,0,1.04.26,1,.95-.04.65-.29,1.13-1.05,1.08Z"/>
      <path class="cls-1" d="m77.14,129.48c-.76.08-1.1-.34-1.09-1.02.01-.7.45-1,1.15-1.01.67,0,1.04.26,1,.95-.04.65-.29,1.13-1.05,1.08Z"/>
      <path class="cls-1" d="m62.86,153.91c-.76.08-1.1-.34-1.09-1.02.01-.7.45-1,1.15-1.01.67,0,1.04.26,1,.95-.04.65-.29,1.13-1.05,1.08Z"/>
      <path class="cls-1" d="m76.8,145.57c-.76.08-1.1-.34-1.09-1.02.01-.7.45-1,1.15-1.01.67,0,1.04.26,1,.95-.04.65-.29,1.13-1.05,1.08Z"/>
      <path class="cls-1" d="m76.8,162.28c-.76.08-1.1-.34-1.09-1.02.01-.7.45-1,1.15-1.01.67,0,1.04.26,1,.95-.04.65-.29,1.13-1.05,1.08Z"/>
      <path class="cls-1" d="m105.2,162.02c-.76.08-1.1-.34-1.09-1.02.01-.7.45-1,1.15-1.01.67,0,1.04.26,1,.95-.04.65-.29,1.13-1.05,1.08Z"/>
      <path class="cls-1" d="m90.9,170.46c-.76.08-1.1-.34-1.09-1.02.01-.7.45-1,1.15-1.01.67,0,1.04.26,1,.95-.04.65-.29,1.13-1.05,1.08Z"/>
      <path class="cls-1" d="m105.2,178.54c-.76.08-1.1-.34-1.09-1.02.01-.7.45-1,1.15-1.01.67,0,1.04.26,1,.95-.04.65-.29,1.13-1.05,1.08Z"/>
      <path class="cls-1" d="m119.21,153.91c-.76.08-1.1-.34-1.09-1.02.01-.7.45-1,1.15-1.01.67,0,1.04.26,1,.95-.04.65-.29,1.13-1.05,1.08Z"/>
      <path class="cls-1" d="m119.5,170.46c-.76.08-1.1-.34-1.09-1.02.01-.7.45-1,1.15-1.01.67,0,1.04.26,1,.95-.04.65-.29,1.13-1.05,1.08Z"/>
      <path class="cls-1" d="m133.5,162.07c-.76.08-1.1-.34-1.09-1.02.01-.7.45-1,1.15-1.01.67,0,1.04.26,1,.95-.04.65-.29,1.13-1.05,1.08Z"/>
      <path class="cls-1" d="m147.89,153.72c-.76.08-1.1-.34-1.09-1.02.01-.7.45-1,1.15-1.01.67,0,1.04.26,1,.95-.04.65-.29,1.13-1.05,1.08Z"/>
      <path class="cls-1" d="m147.89,170.46c-.76.08-1.1-.34-1.09-1.02.01-.7.45-1,1.15-1.01.67,0,1.04.26,1,.95-.04.65-.29,1.13-1.05,1.08Z"/>
      <path class="cls-1" d="m161.96,162.07c-.76.08-1.1-.34-1.09-1.02.01-.7.45-1,1.15-1.01.67,0,1.04.26,1,.95-.04.65-.29,1.13-1.05,1.08Z"/>
      <path class="cls-1" d="m161.96,178.54c-.76.08-1.1-.34-1.09-1.02.01-.7.45-1,1.15-1.01.67,0,1.04.26,1,.95-.04.65-.29,1.13-1.05,1.08Z"/>
      <path class="cls-1" d="m161.96,145.57c-.76.08-1.1-.34-1.09-1.02.01-.7.45-1,1.15-1.01.67,0,1.04.26,1,.95-.04.65-.29,1.13-1.05,1.08Z"/>
      <path class="cls-1" d="m175.92,153.91c-.76.08-1.1-.34-1.09-1.02.01-.7.45-1,1.15-1.01.67,0,1.04.26,1,.95-.04.65-.29,1.13-1.05,1.08Z"/>
      <path class="cls-1" d="m190.8,161.85c-.76.08-1.1-.34-1.09-1.02.01-.7.45-1,1.15-1.01.67,0,1.04.26,1,.95-.04.65-.29,1.13-1.05,1.08Z"/>
      <path class="cls-1" d="m175.92,170.12c-.76.08-1.1-.34-1.09-1.02.01-.7.45-1,1.15-1.01.67,0,1.04.26,1,.95-.04.65-.29,1.13-1.05,1.08Z"/>
      <path class="cls-1" d="m175.92,137.51c-.76.08-1.1-.34-1.09-1.02.01-.7.45-1,1.15-1.01.67,0,1.04.26,1,.95-.04.65-.29,1.13-1.05,1.08Z"/>
      <path class="cls-1" d="m190.46,129.53c-.76.08-1.1-.34-1.09-1.02.01-.7.45-1,1.15-1.01.67,0,1.04.26,1,.95-.04.65-.29,1.13-1.05,1.08Z"/>
      <path class="cls-1" d="m190.46,145.57c-.76.08-1.1-.34-1.09-1.02.01-.7.45-1,1.15-1.01.67,0,1.04.26,1,.95-.04.65-.29,1.13-1.05,1.08Z"/>
      <path class="cls-1" d="m204.49,121.06c-.76.08-1.1-.34-1.09-1.02.01-.7.45-1,1.15-1.01.67,0,1.04.26,1,.95-.04.65-.29,1.13-1.05,1.08Z"/>
      <path class="cls-1" d="m218.67,129.53c-.76.08-1.1-.34-1.09-1.02.01-.7.45-1,1.15-1.01.67,0,1.04.26,1,.95-.04.65-.29,1.13-1.05,1.08Z"/>
      <path class="cls-1" d="m204.49,137.85c-.76.08-1.1-.34-1.09-1.02.01-.7.45-1,1.15-1.01.67,0,1.04.26,1,.95-.04.65-.29,1.13-1.05,1.08Z"/>
      <path class="cls-1" d="m218.67,145.57c-.76.08-1.1-.34-1.09-1.02.01-.7.45-1,1.15-1.01.67,0,1.04.26,1,.95-.04.65-.29,1.13-1.05,1.08Z"/>
      <path class="cls-1" d="m232.99,137.51c-.76.08-1.1-.34-1.09-1.02.01-.7.45-1,1.15-1.01.67,0,1.04.26,1,.95-.04.65-.29,1.13-1.05,1.08Z"/>
      <path class="cls-1" d="m204.49,153.91c-.76.08-1.1-.34-1.09-1.02.01-.7.45-1,1.15-1.01.67,0,1.04.26,1,.95-.04.65-.29,1.13-1.05,1.08Z"/>
      <path class="cls-1" d="m133.94,178.54c-.76.08-1.1-.34-1.09-1.02.01-.7.45-1,1.15-1.01.67,0,1.04.26,1,.95-.04.65-.29,1.13-1.05,1.08Z"/>
      <path class="cls-1" d="m104.97,146.63c-.76.08-1.1-.34-1.09-1.02.01-.7.45-1,1.15-1.01.67,0,1.04.26,1,.95-.04.65-.29,1.13-1.05,1.08Z"/>
    </g>
    <polygon points="159.36 114.46 174.38 114.46 174.38 99.44 159.36 99.44 159.36 112.22 159.36 114.46"/>
    <polygon class="cls-3" points="96.6 141.52 94.1 144.97 96.11 144.97 98.06 142.27 96.6 141.52"/>
  </g>
</svg>