<svg width="1215" height="1230" viewBox="0 0 1215 1230" fill="none" xmlns="http://www.w3.org/2000/svg">
<path d="M608.8 656.5C575.4 656.5 548.4 629.1 548.4 595.3C548.4 561.5 575.4 534.1 608.8 534.1" stroke="#393C39" stroke-width="2" stroke-miterlimit="10"/>
<path d="M636.4 802.199V823.299V768.299C664.4 757.399 684.3 729.999 684.3 697.799C684.3 655.999 650.9 622.199 609.7 622.199C568.5 622.199 535.1 656.099 535.1 697.799C535.1 729.999 555 757.399 583 768.299V898.899L609.8 924.899L627.9 907.299L636.6 898.899V886.699L665.5 865.599L636.6 844.499L665.5 823.399L636.4 802.199ZM609.7 646.199C619.1 646.199 626.7 653.899 626.7 663.399C626.7 672.899 619.1 680.599 609.7 680.599C600.3 680.599 592.7 672.899 592.7 663.399C592.7 653.899 600.3 646.199 609.7 646.199Z" fill="#949494"/>
<path d="M636.4 798.5L665.3 819.6L636.4 840.7V798.5Z" fill="#C4C4C4"/>
<path d="M636.4 840.7L665.3 819.6H636.4V840.7Z" fill="#949494"/>
<path d="M636.4 840.699L665.3 861.799L636.4 882.899V840.699Z" fill="#C4C4C4"/>
<path d="M636.4 882.901L665.3 861.801H636.4V882.901Z" fill="#949494"/>
<path d="M636.4 895.2L609.7 921.1L582.9 895.2V754.6H636.4V895.2Z" fill="#C4C4C4"/>
<path d="M609.7 921.1L636.4 895.2V754.6H609.7V921.1Z" fill="#949494"/>
<path d="M593.8 905.8L599.5 911.2V754.6H593.8V905.8Z" fill="#949494"/>
<path d="M609.7 618.5C568.5 618.5 535.1 652.4 535.1 694.1C535.1 735.9 568.5 769.7 609.7 769.7C650.9 769.7 684.3 735.8 684.3 694.1C684.3 652.3 650.9 618.5 609.7 618.5ZM609.7 676.9C600.3 676.9 592.7 669.2 592.7 659.7C592.7 650.2 600.3 642.5 609.7 642.5C619.1 642.5 626.7 650.2 626.7 659.7C626.6 669.2 619 676.9 609.7 676.9Z" fill="#C4C4C4"/>
<path d="M641.1 730.5H578.2C577.2 730.5 576.4 729.7 576.4 728.7V716.2C576.4 715.2 577.2 714.4 578.2 714.4H641.1C642.1 714.4 642.9 715.2 642.9 716.2V728.7C642.8 729.8 642.1 730.5 641.1 730.5Z" fill="#949494"/>
<path d="M534.5 456.899C534.5 456.899 539.3 423.399 569.4 409.799C569.4 409.799 523.3 370.499 547.7 327.299C547.7 327.299 587.2 293.599 618.5 316.999C618.5 316.999 660.8 345.499 640.5 411.499C620 477.599 559.9 507.099 534.5 456.899Z" fill="#FAAE9D"/>
<path opacity="0.4" d="M534.5 456.899C534.5 456.899 539.3 423.399 569.4 409.799C569.4 409.799 523.3 370.499 547.7 327.299C547.7 327.299 587.2 293.599 618.5 316.999C618.5 316.999 660.8 345.499 640.5 411.499C620 477.599 559.9 507.099 534.5 456.899Z" fill="#FAAE9D"/>
<path d="M571.2 468.001C571.2 468.001 570.3 465.801 570.3 462.601C570.3 456.401 573.7 446.301 593.4 439.801C593.4 439.801 558.1 360.701 593.4 327.301C593.4 327.301 658.7 339.001 673.7 387.501C688.7 436.001 685 455.701 661.7 482.301C638.4 508.901 597.2 521.801 597.2 521.801C597.2 521.801 536.4 503.001 571.2 468.001Z" fill="#FAAE9D"/>
<path opacity="0.3" d="M621 442.301C613.3 429.401 614.2 411.301 623.9 399.801C614.8 392.401 608.9 381.201 608.9 368.701C608.9 356.101 614.9 344.801 624.1 337.401C607.5 329.801 593.4 327.301 593.4 327.301C558.1 360.701 593.4 439.801 593.4 439.801C573.7 446.301 570.3 456.401 570.3 462.601C570.3 465.801 571.2 468.001 571.2 468.001C540.4 498.901 584.1 517.201 594.8 521.101C589.5 515.201 586.3 507.901 586.3 499.301C586.3 487.001 592.8 477.401 602.5 470.701C602.6 470.601 602.8 470.501 602.9 470.401C605.7 468.501 608.8 467.301 612.1 466.601C611.8 457.501 615.1 449.001 621 442.301Z" fill="#FAAE9D"/>
<path d="M0.5 344.401C0.5 344.401 293.1 226.001 328.4 226.001C363.7 226.001 592.2 225.201 619 250.201C645.7 275.201 732.1 389.801 732.1 389.801C732.1 389.801 746.7 407.001 732.1 432.901C717.5 458.801 657.9 537.601 647 545.001C636.1 552.401 557 552.401 564.3 521.601C564.3 521.601 564.7 486.701 613.2 494.901C613.2 494.901 615.7 468.001 643.8 470.801C643.8 470.801 644.1 432.601 671.6 422.301C671.6 422.301 615.4 377.601 621 355.001C621 355.001 556.1 357.201 546.9 331.201C546.9 331.201 516 392.201 487.9 401.001C459.8 409.801 292.4 412.601 272.9 391.901L0.5 521.501V344.401Z" fill="#FBBEB1"/>
<path d="M197.4 282.3C205.3 279.8 213.2 277.5 221.1 275.3C239.9 268.5 259.2 262.8 278.3 257C332.9 240.4 388.3 232.1 445.5 235.4C478.3 237.3 510.6 240.9 543 244.9C567.5 245.7 591.9 246.8 616.3 248.2C580.2 225.1 362.7 225.9 328.3 225.9C293.1 226 0.5 344.4 0.5 344.4V351.8C17 342.8 179.6 288 197.4 282.3Z" fill="#FCCEC4"/>
<path opacity="0.5" d="M634.8 336.999C624.7 342.999 607.1 345.499 594.7 345.499C571 345.499 555.3 339.899 546.1 314.999C545 316.499 547.3 313.599 546.1 314.999C523 375.299 506.6 382.599 490.4 399.899C490.5 398.099 490.8 402.899 490.4 399.899C517.5 388.599 546.7 331.099 546.7 331.099C556 357.099 620.8 354.899 620.8 354.899C615.2 377.399 671.4 422.199 671.4 422.199C643.9 432.499 643.6 470.699 643.6 470.699C615.5 467.899 613 494.799 613 494.799C564.5 486.699 564.1 521.499 564.1 521.499C560.1 538.199 581.6 545.799 603.8 548.099C603.8 547.499 603.7 546.799 603.7 546.199C603.7 527.499 611.7 503.499 624.8 490.299C632.1 482.999 632.9 482.199 649.4 479.899C649.3 476.899 649.3 473.899 649.5 470.999C649.8 466.699 650.4 462.399 651.6 457.999C657.6 435.799 680.9 420.699 703.2 415.499C659.2 418.399 623.7 366.299 634.8 336.999Z" fill="#FAAE9D"/>
<path d="M608.8 534.1C642.2 534.1 669.2 561.5 669.2 595.3C669.2 629.1 642.2 656.5 608.8 656.5" stroke="#393C39" stroke-width="2" stroke-miterlimit="10"/>
<mask id="mask0_57_185" style="mask-type:luminance" maskUnits="userSpaceOnUse" x="0" y="0" width="1215" height="1230">
<path d="M1214.7 0H0.5V1230H1214.7V0Z" fill="white"/>
</mask>
<g mask="url(#mask0_57_185)">
<path d="M264.3 380.3C264.3 380.3 315.2 485.3 444.6 479.2C444.6 479.2 467.4 479.8 478.8 491.9C490.2 504 586 567.2 617.2 542.3C648.4 517.4 575.3 471.3 575.3 471.3C575.3 471.3 547.1 447 532.8 444.6C532.8 444.6 517.2 413 479.5 393.6C441.7 374.2 330.2 315.3 264.3 380.3Z" fill="#FBBEB1"/>
<path opacity="0.5" d="M593.1 545.501C560.5 541.101 498.4 511.001 462 468.201C444.4 471.501 430.6 472.301 427.3 472.501C357.8 476.401 292.6 413.401 276.1 382.301C260.4 390.001 12 504.201 0.5 511.701V521.501L271.5 392.501C289.6 420.001 342.8 484.001 444.6 479.201C444.6 479.201 467.4 479.801 478.8 491.901C490.2 504.001 586 567.201 617.2 542.301C620.6 539.601 605 547.101 593.1 545.501Z" fill="#FAAE9D"/>
<path d="M593.9 542.101C586.6 539.401 580.2 538.401 563.7 528.201C563.7 528.201 581.6 494.501 584.7 494.801C592.2 495.601 616.2 513.601 617.2 518.701C617.9 522.701 609 535.901 605.1 540.101C601.1 544.401 597.1 543.301 593.9 542.101Z" fill="#FAAE9D"/>
<path opacity="0.5" d="M575.3 471.3C575.3 471.3 547.1 447 532.8 444.6C532.8 444.6 521.9 420.7 490.4 400C490.7 400.7 491 401.2 491.2 401.7C491.8 402.2 492.5 402.7 493.1 403.2C497.9 407.1 503.1 411.1 507.4 415.4C514.5 422.6 525 438.3 529 448.8C554.2 461.3 579.9 479.3 602.7 497.5C612.6 505.4 623.2 520.5 624.3 532.3C632.5 507.8 575.3 471.3 575.3 471.3Z" fill="#FAAE9D"/>
</g>
</svg>
