<svg width="19" height="13" viewBox="0 0 19 13" fill="none" xmlns="http://www.w3.org/2000/svg">
<path d="M0 5.37943C0.0637058 5.35489 0.0443171 5.30172 0.060936 5.26491C0.120965 5.10904 0.234507 4.96727 0.390558 4.85333C0.546609 4.73938 0.739878 4.65713 0.951635 4.61455C1.16339 4.57196 1.38646 4.57049 1.59922 4.61026C1.81197 4.65004 2.00721 4.72972 2.166 4.84158C2.84183 5.32013 3.48997 5.81503 4.15473 6.30176C5.75014 7.48382 7.34371 8.66587 8.93543 9.84792C9.04622 9.92973 9.09885 9.92768 9.21241 9.84792C11.4246 8.19959 13.6423 6.55399 15.8655 4.91111C16.0892 4.71884 16.4072 4.60004 16.7495 4.58087C17.0918 4.56169 17.4304 4.6437 17.6908 4.80886C17.9512 4.97402 18.1121 5.20879 18.1381 5.46153C18.1641 5.71428 18.053 5.96429 17.8293 6.15656C17.7683 6.20947 17.7036 6.25998 17.6354 6.3079C15.1389 8.15665 12.6433 10.0088 10.1486 11.8644C9.91938 12.0445 9.63418 12.1807 9.31767 12.2611H8.82464C8.51559 12.2293 8.2334 12.1142 8.03247 11.938C5.51378 10.0702 2.9914 8.20505 0.465329 6.34266C0.209198 6.17519 0.0438928 5.94489 0 5.69438L0 5.6412C0.0292091 5.57474 0.0292091 5.50316 0 5.4367L0 5.37943Z" fill="white"/>
<path d="M0 0.801309C0.0637058 0.776768 0.0443171 0.725641 0.060936 0.686785C0.120965 0.530919 0.234507 0.389144 0.390558 0.2752C0.546609 0.161256 0.739878 0.0790069 0.951635 0.0364222C1.16339 -0.00616247 1.38646 -0.00763826 1.59922 0.0321379C1.81197 0.071914 2.00721 0.151593 2.166 0.263454C2.84183 0.739957 3.48997 1.22873 4.15473 1.72568C5.75014 2.90637 7.34371 4.08774 8.93543 5.2698C9.04623 5.3516 9.09885 5.34956 9.21241 5.2698C11.4283 3.62147 13.6497 1.97586 15.8766 0.332987C16.1003 0.14071 16.4183 0.0219175 16.7606 0.00274116C17.1029 -0.0164351 17.4415 0.065576 17.7019 0.230733C17.9623 0.39589 18.1232 0.630664 18.1492 0.883408C18.1752 1.13615 18.0641 1.38616 17.8404 1.57844C17.7794 1.63201 17.7147 1.68321 17.6465 1.73182C15.1426 3.57784 12.6433 5.42727 10.1486 7.28011C9.91786 7.45886 9.63313 7.59481 9.31767 7.67685H8.82464C8.51797 7.64685 8.23647 7.53566 8.03247 7.36395C5.51378 5.49339 2.9914 3.62419 0.465329 1.75636C0.21094 1.59129 0.0457215 1.36401 0 1.11625L0 1.06512C0.0286515 0.998596 0.0286515 0.927144 0 0.860616L0 0.801309Z" fill="white"/>
</svg>
