<svg width="127" height="169" viewBox="0 0 127 169" fill="none" xmlns="http://www.w3.org/2000/svg">
<path d="M63.8 0.898438V35.8004C79.7 35.8004 92.5 48.2723 92.5 63.548C92.5 78.9203 79.6 91.2956 63.8 91.2956V168.641C63.8 168.641 74.6 146.887 84.3 119.72C109.1 111.405 126.9 88.7819 126.9 62.0011C126.8 28.2593 98.6 0.995119 63.8 0.898438Z" fill="url(#paint0_linear_57_245)"/>
<path d="M63.8 91.2956C47.9 91.2956 35.1 78.8237 35.1 63.548C35.1 48.1756 48 35.8004 63.8 35.8004V0.898438C63.7001 0.898438 63.7 0.898438 63.6 0.898438C28.7 0.898438 0.400024 28.2593 0.400024 62.0011C0.400024 88.6852 18.1 111.309 42.8 119.623C52.6 146.887 63.8 168.641 63.8 168.641V91.2956Z" fill="white"/>
<defs>
<linearGradient id="paint0_linear_57_245" x1="63.7681" y1="84.7735" x2="126.778" y2="84.7735" gradientUnits="userSpaceOnUse">
<stop stop-color="#262626"/>
<stop offset="1" stop-color="#2B2B2B"/>
</linearGradient>
</defs>
</svg>
