<svg width="227" height="55" viewBox="0 0 227 55" fill="none" xmlns="http://www.w3.org/2000/svg">
<path d="M107.67 41.27C106.35 41.27 105.16 41.01 104.1 40.49C103.06 39.97 102.24 39.16 101.64 38.06C101.06 36.94 100.77 35.53 100.77 33.83V24.74H106.47V32.9C106.47 34.16 106.7 35.06 107.16 35.6C107.64 36.14 108.31 36.41 109.17 36.41C109.73 36.41 110.24 36.28 110.7 36.02C111.16 35.76 111.53 35.35 111.81 34.79C112.09 34.21 112.23 33.47 112.23 32.57V24.74H117.93V41H112.5V36.41L113.55 37.7C112.99 38.9 112.18 39.8 111.12 40.4C110.06 40.98 108.91 41.27 107.67 41.27ZM121.601 41V18.74H127.301V41H121.601ZM135.746 38L135.896 31.19L142.526 24.74H149.276L141.926 32.33L139.016 34.67L135.746 38ZM131.006 41V18.74H136.706V41H131.006ZM142.946 41L137.966 34.76L141.506 30.38L149.846 41H142.946ZM161.802 41.27C160.342 41.27 159.122 40.97 158.142 40.37C157.182 39.77 156.462 38.85 155.982 37.61C155.502 36.37 155.262 34.78 155.262 32.84C155.262 30.94 155.512 29.37 156.012 28.13C156.532 26.89 157.282 25.97 158.262 25.37C159.242 24.77 160.422 24.47 161.802 24.47C163.282 24.47 164.622 24.81 165.822 25.49C167.042 26.17 168.002 27.14 168.702 28.4C169.422 29.64 169.782 31.12 169.782 32.84C169.782 34.58 169.422 36.08 168.702 37.34C168.002 38.58 167.042 39.55 165.822 40.25C164.622 40.93 163.282 41.27 161.802 41.27ZM151.572 41V18.74H157.272V27.47L156.972 32.84L157.002 38.21V41H151.572ZM160.602 36.74C161.242 36.74 161.812 36.59 162.312 36.29C162.832 35.99 163.242 35.55 163.542 34.97C163.862 34.37 164.022 33.66 164.022 32.84C164.022 32.02 163.862 31.33 163.542 30.77C163.242 30.19 162.832 29.75 162.312 29.45C161.812 29.15 161.242 29 160.602 29C159.962 29 159.382 29.15 158.862 29.45C158.362 29.75 157.952 30.19 157.632 30.77C157.332 31.33 157.182 32.02 157.182 32.84C157.182 33.66 157.332 34.37 157.632 34.97C157.952 35.55 158.362 35.99 158.862 36.29C159.382 36.59 159.962 36.74 160.602 36.74ZM179.272 41.27C177.952 41.27 176.762 41.01 175.702 40.49C174.662 39.97 173.842 39.16 173.242 38.06C172.662 36.94 172.372 35.53 172.372 33.83V24.74H178.072V32.9C178.072 34.16 178.302 35.06 178.762 35.6C179.242 36.14 179.912 36.41 180.772 36.41C181.332 36.41 181.842 36.28 182.302 36.02C182.762 35.76 183.132 35.35 183.412 34.79C183.692 34.21 183.832 33.47 183.832 32.57V24.74H189.532V41H184.102V36.41L185.152 37.7C184.592 38.9 183.782 39.8 182.722 40.4C181.662 40.98 180.512 41.27 179.272 41.27ZM195.993 47.09C195.133 47.09 194.263 46.95 193.383 46.67C192.523 46.41 191.823 46.06 191.283 45.62L193.263 41.63C193.603 41.93 193.993 42.16 194.433 42.32C194.893 42.5 195.343 42.59 195.783 42.59C196.403 42.59 196.893 42.45 197.253 42.17C197.613 41.89 197.923 41.45 198.183 40.85L198.933 38.96L199.383 38.39L204.903 24.74H210.333L203.313 41.66C202.753 43.06 202.103 44.15 201.363 44.93C200.643 45.73 199.833 46.29 198.933 46.61C198.053 46.93 197.073 47.09 195.993 47.09ZM198.213 41.69L191.043 24.74H196.893L202.173 37.88L198.213 41.69ZM210.674 41V37.64L219.794 27.14L220.754 28.97H210.884V24.74H225.374V28.07L216.224 38.6L215.264 36.74H225.674V41H210.674Z" fill="white"/>
<g clip-path="url(#clip0_274_2)">
<path d="M94.9056 24.83C95.9627 25.8194 96.7987 27.0028 97.363 28.3086C97.9273 29.6145 98.2082 31.0159 98.1888 32.4281C98.1888 37.9326 93.5065 42.4914 87.3949 43.2966C87.0787 43.3379 86.7582 43.371 86.4333 43.3916C86.1085 43.4123 85.7836 43.4246 85.4544 43.4246H46.7143L39 36.9704H79.6243H87.4815C89.7469 36.9704 91.5747 34.9842 91.5747 32.5478C91.58 31.6169 91.3017 30.7045 90.7734 29.9215C90.5405 29.5806 90.2576 29.2733 89.9331 29.0089C89.2486 28.4434 88.3744 28.1299 87.4685 28.1253H73.9242L80.2611 21.5182L84.4712 21.4893H85.0993H87.265H87.3213C88.1476 21.4642 88.9467 21.202 89.6143 20.7372C90.2819 20.2724 90.787 19.6264 91.0636 18.8837C91.183 18.5903 91.2701 18.2858 91.3235 17.9752C91.3848 17.6718 91.4153 17.3634 91.4145 17.0544C91.439 16.2125 91.2128 15.3813 90.762 14.657C90.3112 13.9327 89.6544 13.3451 88.8676 12.9621C88.3798 12.7437 87.8472 12.6308 87.3083 12.6318H71.1738L64.9885 6H85.5757C92.545 6.06194 98.1715 10.9553 98.1715 16.9966C98.0965 19.8953 96.9383 22.6732 94.9056 24.83Z" fill="white"/>
</g>
<defs>
<clipPath id="clip0_274_2">
<rect width="99" height="55" fill="white"/>
</clipPath>
</defs>
</svg>
