<svg width="189" height="43" viewBox="0 0 189 43" fill="none" xmlns="http://www.w3.org/2000/svg">
<path d="M69.67 35.27C68.35 35.27 67.16 35.01 66.1 34.49C65.06 33.97 64.24 33.16 63.64 32.06C63.06 30.94 62.77 29.53 62.77 27.83V18.74H68.47V26.9C68.47 28.16 68.7 29.06 69.16 29.6C69.64 30.14 70.31 30.41 71.17 30.41C71.73 30.41 72.24 30.28 72.7 30.02C73.16 29.76 73.53 29.35 73.81 28.79C74.09 28.21 74.23 27.47 74.23 26.57V18.74H79.93V35H74.5V30.41L75.55 31.7C74.99 32.9 74.18 33.8 73.12 34.4C72.06 34.98 70.91 35.27 69.67 35.27ZM83.6015 35V12.74H89.3015V35H83.6015ZM97.7458 32L97.8958 25.19L104.526 18.74H111.276L103.926 26.33L101.016 28.67L97.7458 32ZM93.0058 35V12.74H98.7058V35H93.0058ZM104.946 35L99.9658 28.76L103.506 24.38L111.846 35H104.946ZM123.802 35.27C122.342 35.27 121.122 34.97 120.142 34.37C119.182 33.77 118.462 32.85 117.982 31.61C117.502 30.37 117.262 28.78 117.262 26.84C117.262 24.94 117.512 23.37 118.012 22.13C118.532 20.89 119.282 19.97 120.262 19.37C121.242 18.77 122.422 18.47 123.802 18.47C125.282 18.47 126.622 18.81 127.822 19.49C129.042 20.17 130.002 21.14 130.702 22.4C131.422 23.64 131.782 25.12 131.782 26.84C131.782 28.58 131.422 30.08 130.702 31.34C130.002 32.58 129.042 33.55 127.822 34.25C126.622 34.93 125.282 35.27 123.802 35.27ZM113.572 35V12.74H119.272V21.47L118.972 26.84L119.002 32.21V35H113.572ZM122.602 30.74C123.242 30.74 123.812 30.59 124.312 30.29C124.832 29.99 125.242 29.55 125.542 28.97C125.862 28.37 126.022 27.66 126.022 26.84C126.022 26.02 125.862 25.33 125.542 24.77C125.242 24.19 124.832 23.75 124.312 23.45C123.812 23.15 123.242 23 122.602 23C121.962 23 121.382 23.15 120.862 23.45C120.362 23.75 119.952 24.19 119.632 24.77C119.332 25.33 119.182 26.02 119.182 26.84C119.182 27.66 119.332 28.37 119.632 28.97C119.952 29.55 120.362 29.99 120.862 30.29C121.382 30.59 121.962 30.74 122.602 30.74ZM141.272 35.27C139.952 35.27 138.762 35.01 137.702 34.49C136.662 33.97 135.842 33.16 135.242 32.06C134.662 30.94 134.372 29.53 134.372 27.83V18.74H140.072V26.9C140.072 28.16 140.302 29.06 140.762 29.6C141.242 30.14 141.912 30.41 142.772 30.41C143.332 30.41 143.842 30.28 144.302 30.02C144.762 29.76 145.132 29.35 145.412 28.79C145.692 28.21 145.832 27.47 145.832 26.57V18.74H151.532V35H146.102V30.41L147.152 31.7C146.592 32.9 145.782 33.8 144.722 34.4C143.662 34.98 142.512 35.27 141.272 35.27ZM157.993 41.09C157.133 41.09 156.263 40.95 155.383 40.67C154.523 40.41 153.823 40.06 153.283 39.62L155.263 35.63C155.603 35.93 155.993 36.16 156.433 36.32C156.893 36.5 157.343 36.59 157.783 36.59C158.403 36.59 158.893 36.45 159.253 36.17C159.613 35.89 159.923 35.45 160.183 34.85L160.933 32.96L161.383 32.39L166.903 18.74H172.333L165.313 35.66C164.753 37.06 164.103 38.15 163.363 38.93C162.643 39.73 161.833 40.29 160.933 40.61C160.053 40.93 159.073 41.09 157.993 41.09ZM160.213 35.69L153.043 18.74H158.893L164.173 31.88L160.213 35.69ZM172.674 35V31.64L181.794 21.14L182.754 22.97H172.884V18.74H187.374V22.07L178.224 32.6L177.264 30.74H187.674V35H172.674Z" fill="white"/>
<path d="M55.905 18.8298C56.9619 19.8193 57.7977 21.0027 58.362 22.3085C58.9263 23.6143 59.2073 25.0156 59.1882 26.4278C59.1882 31.9322 54.506 36.4909 48.3944 37.2962C48.0782 37.3375 47.7577 37.3705 47.4328 37.3911C47.108 37.4118 46.7831 37.4242 46.4539 37.4242H7.71417L0 30.97H48.481C50.7463 30.97 52.5742 28.9838 52.5742 26.5475C52.5785 25.6167 52.3002 24.7046 51.7729 23.9212C51.5403 23.5801 51.2573 23.2727 50.9326 23.0087C50.2482 22.4428 49.3739 22.1293 48.468 22.125H34.9238L41.2606 15.518L45.4707 15.4891H48.3208C49.147 15.464 49.9462 15.2019 50.6138 14.737C51.2814 14.2722 51.7865 13.6262 52.0631 12.8835C52.1839 12.5906 52.271 12.286 52.3229 11.9751C52.3836 11.6715 52.4141 11.3632 52.4139 11.0542C52.439 10.2123 52.213 9.38086 51.7621 8.6565C51.3113 7.93214 50.6542 7.34457 49.8671 6.96206C49.379 6.74423 48.8466 6.63144 48.3078 6.63171H32.1734L25.9882 0H46.5752C53.5444 0.06194 59.1708 4.9552 59.1708 10.9964C59.0962 13.8952 57.9381 16.6732 55.905 18.8298Z" fill="white"/>
</svg>
