<svg width="25" height="25" viewBox="0 0 25 25" fill="none" xmlns="http://www.w3.org/2000/svg">
<path d="M18.0312 6.01303C18.221 6.2028 18.3276 6.46018 18.3276 6.72855C18.3276 6.99693 18.221 7.25431 18.0312 7.44408L13.4519 12.0234L18.0312 16.6028C18.221 16.7926 18.3276 17.0499 18.3276 17.3183C18.3276 17.5867 18.221 17.8441 18.0312 18.0338C17.8415 18.2236 17.5841 18.3302 17.3157 18.3302C17.0473 18.3302 16.7899 18.2236 16.6002 18.0338L12.0208 13.4545L7.44146 18.0338C7.25169 18.2236 6.99431 18.3302 6.72593 18.3302C6.45756 18.3302 6.20018 18.2236 6.01041 18.0338C5.82064 17.8441 5.71403 17.5867 5.71403 17.3183C5.71403 17.0499 5.82064 16.7926 6.01041 16.6028L10.5898 12.0234L6.01041 7.44408C5.82064 7.25431 5.71403 6.99693 5.71403 6.72855C5.71403 6.46018 5.82064 6.2028 6.01041 6.01303C6.20018 5.82326 6.45756 5.71665 6.72593 5.71665C6.99431 5.71665 7.25169 5.82326 7.44146 6.01303L12.0208 10.5924L16.6002 6.01303C16.7899 5.82326 17.0473 5.71665 17.3157 5.71665C17.5841 5.71665 17.8415 5.82326 18.0312 6.01303Z" fill="#4F4F4F"/>
</svg>
