<?xml version="1.0" encoding="UTF-8"?>
<svg id="_Слой_2" data-name="Слой 2" xmlns="http://www.w3.org/2000/svg" viewBox="0 0 267.75 212.5">
  <defs>
    <style>
      .cls-1 {
        fill: #b9c0e6;
      }

      .cls-2 {
        fill: #b3b7d7;
      }

      .cls-3 {
        fill: #bbc2e8;
      }

      .cls-4 {
        fill: #010217;
      }

      .cls-5 {
        fill: #472dec;
      }

      .cls-6 {
        fill: #e1e4f9;
      }

      .cls-7 {
        fill: #d0d4f7;
      }

      .cls-8 {
        fill: #3c496e;
      }

      .cls-9 {
        fill: #5761d8;
      }

      .cls-10 {
        fill: #6c72cf;
      }
    </style>
  </defs>
  <g id="_Слой_2-2" data-name="Слой 2">
    <polygon class="cls-1" points="20.88 124.5 1.88 135.5 133.88 212.5 264.88 136.5 246.88 124.5 133.88 190.5 20.88 124.5"/>
    <polygon class="cls-6" points="134.38 9 120.38 0 71.03 27.09 86.38 37 134.38 9"/>
    <path class="cls-8" d="m.5,112.65l133.38,77.85,133.38-77.85c.57-.33.67-1.11.2-1.57l-.04-.04c-.32-.32-.82-.39-1.21-.16l-132.34,76.44L1.54,110.88c-.39-.23-.89-.16-1.21.16l-.04.04c-.46.46-.36,1.24.2,1.57Z"/>
    <path class="cls-3" d="m91.38,98l-21.23,12.58c-.34.19-.35.67-.01.87l63.49,37.45c.16.09.35.09.51,0l63-36.96c.33-.19.33-.67,0-.87l-20.75-13.07-42.5,25.45-42.5-25.45Z"/>
    <path class="cls-10" d="m133.88,123.45l-64.38-37.8c-.56-.33-.66-1.11-.2-1.57l.54-.54c.32-.32.82-.39,1.21-.15l62.33,36.67,63.41-36.34c.36-.21.8-.17,1.13.09l.34.27c.54.44.48,1.29-.12,1.64l-64.25,37.72Z"/>
    <polygon class="cls-4" points="71.04 83.39 86.38 74 133.63 103.35 182.38 75 196.38 84 133.38 120.06 71.04 83.39"/>
    <path class="cls-10" d="m133.34,103.92l-64.38-37.8c-.56-.33-.66-1.11-.2-1.57l.54-.54c.32-.32.82-.39,1.21-.15l62.33,36.67,63.41-36.34c.36-.21.8-.17,1.13.09l.34.27c.54.44.48,1.29-.12,1.64l-64.25,37.72Z"/>
    <path class="cls-10" d="m134.34,85.92l-64.38-37.8c-.56-.33-.66-1.11-.2-1.57l.54-.54c.32-.32.82-.39,1.21-.15l62.33,36.67,63.41-36.34c.36-.21.8-.17,1.13.09l.34.27c.54.44.48,1.29-.12,1.64l-64.25,37.72Z"/>
    <polygon class="cls-7" points="86.38 37 134.38 9 183.38 38 136.38 66 86.38 37"/>
    <rect class="cls-9" x="91.29" y="14.67" width="45.32" height="2" rx="1" ry="1" transform="translate(7.43 59.07) rotate(-30)"/>
    <rect class="cls-9" x="100.29" y="19.67" width="45.32" height="2" rx="1" ry="1" transform="translate(6.14 64.24) rotate(-30)"/>
    <rect class="cls-9" x="108.58" y="25.32" width="44.82" height="2" rx="1" ry="1" transform="translate(4.39 69.02) rotate(-30)"/>
    <rect class="cls-9" x="118.5" y="33.94" width="31.98" height="2" rx="1" ry="1" transform="translate(.55 71.93) rotate(-30)"/>
    <polygon class="cls-5" points="71.26 64.3 83.38 56 133.81 85 183.38 57 195.11 64.85 132.84 100.53 71.26 64.3"/>
    <polygon class="cls-7" points="84.38 38 71.51 45.86 133.84 82.53 197.25 46.19 183.38 38 133.88 66.5 84.38 38"/>
    <path class="cls-10" d="m133.86,67.15L69.48,29.35c-.56-.33-.66-1.11-.2-1.57l.54-.54c.32-.32.82-.39,1.21-.15l62.33,36.67,63.41-36.34c.36-.21.8-.17,1.13.09l.34.27c.54.44.48,1.29-.12,1.64l-64.25,37.72Z"/>
    <g id="_Точки" data-name="Точки">
      <path class="cls-2" d="m49.29,102.09c.5.09.99.28.95.99-.03.63-.39,1.04-1.01,1.03-.7-.01-1.02-.47-1-1.16.02-.63.39-.87,1.06-.86Z"/>
      <path class="cls-2" d="m91.65,143.09c.5.09.99.28.95.99-.03.63-.39,1.04-1.01,1.03-.7-.01-1.02-.47-1-1.16.02-.63.39-.87,1.06-.86Z"/>
      <path class="cls-2" d="m77.22,135.48c.5.09.99.28.95.99-.03.63-.39,1.04-1.01,1.03-.7-.01-1.02-.47-1-1.16.02-.63.39-.87,1.06-.86Z"/>
      <path class="cls-2" d="m91.22,127.48c.5.09.99.28.95.99-.03.63-.39,1.04-1.01,1.03-.7-.01-1.02-.47-1-1.16.02-.63.39-.87,1.06-.86Z"/>
      <path class="cls-2" d="m105.22,135.48c.5.09.99.28.95.99-.03.63-.39,1.04-1.01,1.03-.7-.01-1.02-.47-1-1.16.02-.63.39-.87,1.06-.86Z"/>
      <path class="cls-2" d="m105.22,151.48c.5.09.99.28.95.99-.03.63-.39,1.04-1.01,1.03-.7-.01-1.02-.47-1-1.16.02-.63.39-.87,1.06-.86Z"/>
      <path class="cls-2" d="m119.54,143.23c.5.09.99.28.95.99-.03.63-.39,1.04-1.01,1.03-.7-.01-1.02-.47-1-1.16.02-.63.39-.87,1.06-.86Z"/>
      <path class="cls-2" d="m119.54,159.23c.5.09.99.28.95.99-.03.63-.39,1.04-1.01,1.03-.7-.01-1.02-.47-1-1.16.02-.63.39-.87,1.06-.86Z"/>
      <path class="cls-2" d="m133.54,151.23c.5.09.99.28.95.99-.03.63-.39,1.04-1.01,1.03-.7-.01-1.02-.47-1-1.16.02-.63.39-.87,1.06-.86Z"/>
      <path class="cls-2" d="m133.54,168.23c.5.09.99.28.95.99-.03.63-.39,1.04-1.01,1.03-.7-.01-1.02-.47-1-1.16.02-.63.39-.87,1.06-.86Z"/>
      <path class="cls-2" d="m148.45,143.03c.5.09.99.28.95.99-.03.63-.39,1.04-1.01,1.03-.7-.01-1.02-.47-1-1.16.02-.63.39-.87,1.06-.86Z"/>
      <path class="cls-2" d="m147.62,159.31c.5.09.99.28.95.99-.03.63-.39,1.04-1.01,1.03-.7-.01-1.02-.47-1-1.16.02-.63.39-.87,1.06-.86Z"/>
      <path class="cls-2" d="m161.62,151.31c.5.09.99.28.95.99-.03.63-.39,1.04-1.01,1.03-.7-.01-1.02-.47-1-1.16.02-.63.39-.87,1.06-.86Z"/>
      <path class="cls-2" d="m161.75,134.86c.5.09.99.28.95.99-.03.63-.39,1.04-1.01,1.03-.7-.01-1.02-.47-1-1.16.02-.63.39-.87,1.06-.86Z"/>
      <path class="cls-2" d="m175.75,142.86c.5.09.99.28.95.99-.03.63-.39,1.04-1.01,1.03-.7-.01-1.02-.47-1-1.16.02-.63.39-.87,1.06-.86Z"/>
      <path class="cls-2" d="m176.75,126.86c.5.09.99.28.95.99-.03.63-.39,1.04-1.01,1.03-.7-.01-1.02-.47-1-1.16.02-.63.39-.87,1.06-.86Z"/>
      <path class="cls-2" d="m190.75,134.86c.5.09.99.28.95.99-.03.63-.39,1.04-1.01,1.03-.7-.01-1.02-.47-1-1.16.02-.63.39-.87,1.06-.86Z"/>
      <path class="cls-2" d="m190.75,118.86c.5.09.99.28.95.99-.03.63-.39,1.04-1.01,1.03-.7-.01-1.02-.47-1-1.16.02-.63.39-.87,1.06-.86Z"/>
      <path class="cls-2" d="m204.75,126.86c.5.09.99.28.95.99-.03.63-.39,1.04-1.01,1.03-.7-.01-1.02-.47-1-1.16.02-.63.39-.87,1.06-.86Z"/>
      <path class="cls-2" d="m219.46,118.93c.5.09.99.28.95.99-.03.63-.39,1.04-1.01,1.03-.7-.01-1.02-.47-1-1.16.02-.63.39-.87,1.06-.86Z"/>
      <path class="cls-2" d="m204.46,109.93c.5.09.99.28.95.99-.03.63-.39,1.04-1.01,1.03-.7-.01-1.02-.47-1-1.16.02-.63.39-.87,1.06-.86Z"/>
      <path class="cls-2" d="m190.46,101.93c.5.09.99.28.95.99-.03.63-.39,1.04-1.01,1.03-.7-.01-1.02-.47-1-1.16.02-.63.39-.87,1.06-.86Z"/>
      <path class="cls-2" d="m205.46,94.54c.5.09.99.28.95.99-.03.63-.39,1.04-1.01,1.03-.7-.01-1.02-.47-1-1.16.02-.63.39-.87,1.06-.86Z"/>
      <path class="cls-2" d="m218.46,102.54c.5.09.99.28.95.99-.03.63-.39,1.04-1.01,1.03-.7-.01-1.02-.47-1-1.16.02-.63.39-.87,1.06-.86Z"/>
      <path class="cls-2" d="m233.46,110.54c.5.09.99.28.95.99-.03.63-.39,1.04-1.01,1.03-.7-.01-1.02-.47-1-1.16.02-.63.39-.87,1.06-.86Z"/>
      <path class="cls-2" d="m62.42,127.41c.5.09.99.28.95.99-.03.63-.39,1.04-1.01,1.03-.7-.01-1.02-.47-1-1.16.02-.63.39-.87,1.06-.86Z"/>
      <path class="cls-2" d="m77.26,118.35c.5.09.99.28.95.99-.03.63-.39,1.04-1.01,1.03-.7-.01-1.02-.47-1-1.16.02-.63.39-.87,1.06-.86Z"/>
      <path class="cls-2" d="m63.09,110.58c.5.09.99.28.95.99-.03.63-.39,1.04-1.01,1.03-.7-.01-1.02-.47-1-1.16.02-.63.39-.87,1.06-.86Z"/>
      <path class="cls-2" d="m49.09,118.58c.5.09.99.28.95.99-.03.63-.39,1.04-1.01,1.03-.7-.01-1.02-.47-1-1.16.02-.63.39-.87,1.06-.86Z"/>
      <path class="cls-2" d="m76.64,102.1c.5.09.99.28.95.99-.03.63-.39,1.04-1.01,1.03-.7-.01-1.02-.47-1-1.16.02-.63.39-.87,1.06-.86Z"/>
      <path class="cls-2" d="m62.64,94.1c.5.09.99.28.95.99-.03.63-.39,1.04-1.01,1.03-.7-.01-1.02-.47-1-1.16.02-.63.39-.87,1.06-.86Z"/>
      <path class="cls-2" d="m34.74,110.39c.5.09.99.28.95.99-.03.63-.39,1.04-1.01,1.03-.7-.01-1.02-.47-1-1.16.02-.63.39-.87,1.06-.86Z"/>
      <path class="cls-10" d="m147.44,126.59c.5.09.99.28.95.99-.03.63-.39,1.04-1.01,1.03-.7-.01-1.02-.47-1-1.16.02-.63.39-.87,1.06-.86Z"/>
      <path class="cls-10" d="m162.12,118.19c.5.09.99.28.95.99-.03.63-.39,1.04-1.01,1.03-.7-.01-1.02-.47-1-1.16.02-.63.39-.87,1.06-.86Z"/>
      <path class="cls-10" d="m176.12,110.94c.5.09.99.28.95.99-.03.63-.39,1.04-1.01,1.03-.7-.01-1.02-.47-1-1.16.02-.63.39-.87,1.06-.86Z"/>
      <path class="cls-10" d="m134.33,135.44c.5.09.99.28.95.99-.03.63-.39,1.04-1.01,1.03-.7-.01-1.02-.47-1-1.16.02-.63.39-.87,1.06-.86Z"/>
      <path class="cls-10" d="m119.33,127.44c.5.09.99.28.95.99-.03.63-.39,1.04-1.01,1.03-.7-.01-1.02-.47-1-1.16.02-.63.39-.87,1.06-.86Z"/>
      <path class="cls-10" d="m105.33,118.44c.5.09.99.28.95.99-.03.63-.39,1.04-1.01,1.03-.7-.01-1.02-.47-1-1.16.02-.63.39-.87,1.06-.86Z"/>
      <path class="cls-10" d="m91.18,110.56c.5.09.99.28.95.99-.03.63-.39,1.04-1.01,1.03-.7-.01-1.02-.47-1-1.16.02-.63.39-.87,1.06-.86Z"/>
    </g>
  </g>
</svg>