<svg width="30" height="30" viewBox="0 0 30 30" fill="none" xmlns="http://www.w3.org/2000/svg">
<path d="M30 15C30 15.4736 29.8119 15.9278 29.477 16.2627C29.1421 16.5976 28.6879 16.7857 28.2143 16.7857H16.7857V28.2143C16.7857 28.6879 16.5976 29.1421 16.2627 29.477C15.9278 29.8119 15.4736 30 15 30C14.5264 30 14.0722 29.8119 13.7373 29.477C13.4024 29.1421 13.2143 28.6879 13.2143 28.2143V16.7857H1.78571C1.31211 16.7857 0.85791 16.5976 0.523024 16.2627C0.188137 15.9278 0 15.4736 0 15C0 14.5264 0.188137 14.0722 0.523024 13.7373C0.85791 13.4024 1.31211 13.2143 1.78571 13.2143H13.2143V1.78571C13.2143 1.31211 13.4024 0.85791 13.7373 0.523024C14.0722 0.188137 14.5264 0 15 0C15.4736 0 15.9278 0.188137 16.2627 0.523024C16.5976 0.85791 16.7857 1.31211 16.7857 1.78571V13.2143H28.2143C28.6879 13.2143 29.1421 13.4024 29.477 13.7373C29.8119 14.0722 30 14.5264 30 15Z" fill="white"/>
</svg>
