<svg width="169" height="169" viewBox="0 0 169 169" fill="none" xmlns="http://www.w3.org/2000/svg">
<path d="M84.2435 168.243C130.691 168.243 168.344 130.58 168.344 84.1214C168.344 37.6624 130.691 0 84.2435 0C37.7964 0 0.143555 37.6624 0.143555 84.1214C0.143555 130.58 37.7964 168.243 84.2435 168.243Z" fill="#002C40"/>
<path fill-rule="evenodd" clip-rule="evenodd" d="M58.1433 92.2119C58.6433 92.2119 59.2432 92.212 59.7432 92.3119L79.5433 63.3389C79.5433 45.7554 93.8433 31.4688 111.443 31.4688C129.043 31.4688 143.343 45.7554 143.343 63.3389C143.343 80.9225 129.043 95.2091 111.443 95.2091C111.243 95.2091 110.943 95.2091 110.743 95.2091L82.4433 115.29C82.4433 115.69 82.4433 116.19 82.4433 116.589C82.4433 129.977 71.5433 140.866 58.1433 140.866C46.1433 140.866 36.2433 132.275 34.1433 120.885L3.44331 108.197C0.643311 98.606 -0.556701 88.6153 0.243299 78.0252L44.1433 96.5079C48.0433 93.9104 52.9433 92.2119 58.1433 92.2119ZM111.543 47.0542C120.443 47.0542 127.643 54.2475 127.643 63.1392C127.643 72.0308 120.443 79.2241 111.543 79.2241C102.643 79.2241 95.4433 72.0308 95.4433 63.1392C95.4433 54.2475 102.643 47.0542 111.543 47.0542ZM111.543 42.1588C123.243 42.1588 132.643 51.55 132.643 63.239C132.643 74.9281 123.243 84.3193 111.543 84.3193C99.8433 84.3193 90.4433 74.9281 90.4433 63.239C90.4433 51.55 99.8433 42.1588 111.543 42.1588ZM58.1433 98.606C68.0433 98.606 76.0433 106.599 76.0433 116.489C76.0433 126.38 68.0433 134.373 58.1433 134.373C50.9433 134.373 44.7433 130.077 41.8433 123.982C45.9433 125.681 53.3433 129.477 57.5433 129.477C64.8433 129.477 70.8433 123.583 70.8433 116.19C70.8433 105 59.9432 103.202 51.7432 99.7049C53.6432 99.1055 55.8433 98.606 58.1433 98.606Z" fill="#FCFCFC"/>
</svg>
