<svg xmlns="http://www.w3.org/2000/svg" viewBox="0 0 25 22.91"><defs><style>.cls-1,.cls-3,.cls-6{isolation:isolate;}.cls-1,.cls-3{opacity:0.2;}.cls-2{fill:#1a414f;}.cls-3{fill:#1d7a93;}.cls-4{fill:#fcfcfc;}.cls-5{fill:#002c40;}.cls-6{fill:#fff;opacity:0.1;}</style></defs><g id="Слой_2" data-name="Слой 2"><g id="Слой_1-2" data-name="Слой 1"><path class="cls-1" d="M1.2,7H23.7a1.22,1.22,0,0,1,1.2,1.2V21.7a1.22,1.22,0,0,1-1.2,1.2H1.2A1.15,1.15,0,0,1,0,21.7V8.2A1.29,1.29,0,0,1,1.2,7Z"/><path class="cls-2" d="M0,16.7A1.31,1.31,0,0,0,1.2,18H23.7a1.22,1.22,0,0,0,1.2-1.2V3.2A1.13,1.13,0,0,0,23.8,2H11V1.2A1.29,1.29,0,0,0,9.8,0H1.2A1.29,1.29,0,0,0,0,1.2"/><path class="cls-3" d="M1.2,5H23.7a1.22,1.22,0,0,1,1.2,1.2V19.7a1.22,1.22,0,0,1-1.2,1.2H1.2A1.15,1.15,0,0,1,0,19.7V6.2A1.29,1.29,0,0,1,1.2,5Z"/><path class="cls-4" d="M3.2,4H21.7a1.22,1.22,0,0,1,1.2,1.2v7.5a1.22,1.22,0,0,1-1.2,1.2H3.2A1.15,1.15,0,0,1,2,12.7V5.2A1.29,1.29,0,0,1,3.2,4Z"/><path class="cls-5" d="M1.2,6H23.7a1.22,1.22,0,0,1,1.2,1.2V20.7a1.22,1.22,0,0,1-1.2,1.2H1.2A1.15,1.15,0,0,1,0,20.7V7.2A1.29,1.29,0,0,1,1.2,6Z"/><path class="cls-6" d="M1.2,0A1.29,1.29,0,0,0,0,1.2v1A1.29,1.29,0,0,1,1.2,1H9.7A1.31,1.31,0,0,1,11,2.2V3H23.8A1.29,1.29,0,0,1,25,4.2v-1A1.29,1.29,0,0,0,23.8,2H11V1.2A1.29,1.29,0,0,0,9.8,0Z"/><path class="cls-4" d="M4,15.1l3,1.7V17a3,3,0,0,0,3,3,3,3,0,0,0,3-3v-.4L16.6,14A3.5,3.5,0,1,0,13,10.5l-2.3,3.6A1.7,1.7,0,0,0,10,14a2.77,2.77,0,0,0-1.3.3L4,11.6M16.5,8A2.5,2.5,0,1,1,14,10.5,2.48,2.48,0,0,1,16.5,8Zm0,1A1.5,1.5,0,1,0,18,10.5,1.54,1.54,0,0,0,16.5,9ZM10,15a2,2,0,0,1,0,4,2,2,0,0,1-2-1.6l.7.4a1.46,1.46,0,1,0,1.5-2.5L10,15Z"/></g></g></svg>